<svg width="404" height="322" viewBox="0 0 404 322" fill="none" xmlns="http://www.w3.org/2000/svg">
<path d="M202.001 321.872C313.229 321.872 403.398 307.235 403.398 289.178C403.398 271.122 313.229 256.484 202.001 256.484C90.772 256.484 0.603516 271.122 0.603516 289.178C0.603516 307.235 90.772 321.872 202.001 321.872Z" fill="#92E3A9"/>
<path opacity="0.5" d="M202.001 321.872C313.229 321.872 403.398 307.235 403.398 289.178C403.398 271.122 313.229 256.484 202.001 256.484C90.772 256.484 0.603516 271.122 0.603516 289.178C0.603516 307.235 90.772 321.872 202.001 321.872Z" fill="white"/>
<path d="M311.788 271.178C306.648 280.878 301.732 287.199 296.893 291.335C290.382 296.887 284.038 298.448 277.572 298.894C266.445 299.652 245.797 296.385 225.796 282.728C225.506 282.538 225.216 282.338 224.926 282.137C224.926 282.137 224 282.561 222.26 283.141C220.019 283.877 216.44 284.88 211.702 285.571H211.691C204.734 286.586 195.325 286.942 184.12 284.813C181.11 284.244 177.977 283.497 174.733 282.539C174.733 282.539 171.968 287.712 166.851 292.93C160.786 299.118 151.387 305.383 139.346 303.098C117.171 298.895 112.009 289.719 108.943 276.14C107.059 267.767 107.271 259.405 107.717 254.221C107.996 250.999 108.352 249.003 108.352 249.003C108.352 249.003 100.392 252.114 96.1325 240.775C96.1325 240.775 95.7645 265.559 84.9055 268.146C79.6765 269.384 75.7965 267.187 73.0205 263.397C69.9215 259.205 68.1705 253.062 67.4345 247.532C67.2555 246.183 67.1445 244.878 67.0775 243.641C66.4975 232.748 69.5635 213.817 75.2945 196.235C81.0365 178.642 98.6185 155.318 113.347 142.129C128.064 128.929 137.518 123.633 137.518 123.633C137.518 123.633 129.725 106.776 128.944 89.2046C128.777 85.7376 128.899 82.2476 129.401 78.8476C129.401 78.8476 110.481 77.6996 103.591 61.0646C98.3055 48.2766 98.0945 36.7266 101.673 28.2526C102.743 25.6996 104.159 23.4366 105.887 21.4856C113.346 13.0796 130.794 5.40858 152.211 25.4766C152.211 25.4766 152.367 25.4096 152.679 25.2756H152.69C156.302 23.7596 179.725 14.4946 205.413 17.8836C208.423 18.2846 211.468 18.8536 214.512 19.6336C214.545 19.6446 214.579 19.6556 214.601 19.6666C218.525 20.6586 222.46 22.0186 226.329 23.7806C226.329 23.7806 232.071 4.47057 252.518 2.94257C259.676 2.40757 264.683 5.10557 268.139 9.04157C274.561 16.3666 275.641 28.0056 275.273 31.2396C274.704 36.2116 273.199 51.5086 254.268 55.7116C254.268 55.7116 254.592 62.1896 255.663 66.6936C256.733 71.1976 264.95 80.5626 263.233 94.3326C261.505 108.069 255.372 118.66 243.565 125.74C243.543 125.762 243.522 125.773 243.499 125.784C243.499 125.784 243.51 125.795 243.533 125.829C243.566 125.862 243.622 125.918 243.711 126.018C244.023 126.375 244.691 127.133 245.639 128.259C251.18 134.859 266.299 153.846 275.085 174.628C284.528 197.004 284.35 212.479 284.138 216.203C284.105 216.783 284.07 217.073 284.07 217.073C284.07 217.073 288.453 218.054 289.991 223.105C289.991 223.105 299.935 208.845 310.259 215.156C320.583 221.466 316.526 236.339 316.526 236.339C316.526 236.339 323.84 248.423 311.788 271.178Z" fill="#92E3A9"/>
<path opacity="0.2" d="M256.5 223.559C255.552 253.282 242.187 272.047 226.021 281.233C225.731 281.043 225.216 282.336 224.926 282.135C224.926 282.135 224.001 282.559 222.261 283.139C220.02 283.875 216.441 284.878 211.703 285.569C217.501 280.24 229.831 267.463 234.614 251.453C240.958 230.214 240.958 198.819 237.78 177.892C234.614 156.965 227.322 132.226 227.322 132.226L236.364 130.531C236.364 130.531 257.76 183.601 256.5 223.559Z" fill="black"/>
<path opacity="0.6" d="M173.418 211.277C173.418 211.277 167.631 205.061 163.558 202.917L164.63 207.204C164.63 207.204 150.697 203.131 137.193 217.493C137.193 217.493 127.119 204.203 119.188 208.919C111.257 213.635 117.687 223.495 117.687 223.495L112.971 220.494C112.971 220.494 114.471 228.639 118.973 231.64C118.973 231.64 107.613 254.575 110.614 280.94C110.614 280.94 102.431 256.979 112.31 233.485C112.31 233.485 102.643 215.897 114.452 205.656C126.261 195.415 136.571 211.721 136.571 211.721C136.571 211.721 147.489 194.529 161.843 198.416C172.132 201.202 173.418 211.277 173.418 211.277Z" fill="white"/>
<path opacity="0.2" d="M284.696 216.513C282.622 216.123 278.859 217.026 275.895 219.727C265.972 228.77 255.951 234.308 255.951 234.308C255.951 234.308 257.471 205.387 253.758 187.827C250.045 170.279 234.18 131.803 234.18 131.803L245.641 128.258C251.182 134.858 266.3 153.845 275.086 174.627C284.529 197.003 284.908 212.789 284.696 216.513Z" fill="black"/>
<path opacity="0.2" d="M300.231 288.4C293.72 293.952 284.039 298.454 277.572 298.9C266.289 299.669 245.195 296.291 224.926 282.143C224.926 282.143 224.001 282.567 222.261 283.147L222.127 282.957C222.127 282.957 237.223 276.747 245.796 264.026L244.313 271.418C244.313 271.418 272.539 267.792 280.522 259.508C280.522 259.508 279.521 294.914 300.231 288.4Z" fill="black"/>
<path opacity="0.6" d="M167.073 130.211C167.073 130.211 150.249 130.211 141.296 125.06C141.296 125.06 120.949 144.861 110.369 163.045C99.7885 181.218 97.8815 192.345 97.8815 192.345L95.1725 180.404C91.7565 187.776 88.8045 195.45 86.4605 203.227C84.0575 211.197 82.9375 219.538 79.9755 227.341C77.1585 234.762 72.3545 241.364 67.4345 247.531C67.2555 246.182 67.1445 244.877 67.0775 243.64C66.4975 232.747 69.5635 213.816 75.2945 196.234C81.0365 178.641 98.6185 155.317 113.347 142.128C128.064 128.928 137.518 123.632 137.518 123.632C137.518 123.632 129.725 106.775 128.944 89.2039L129.401 78.8469C129.401 78.8469 134.381 47.9139 145.23 38.9609L147.541 40.6839C147.541 40.6839 146.181 48.2769 154.866 66.1819C154.866 66.1819 146.449 62.1129 144.821 58.3109C144.821 58.3109 146.665 65.5799 150.444 72.1929C150.444 72.1929 147.61 73.6099 143.043 70.1459C143.043 70.1459 140.483 116.108 167.073 130.211Z" fill="white"/>
<path opacity="0.6" d="M158.265 34.2488L148.677 27.0018L148.476 32.4868C148.476 32.4868 139.267 21.7168 133.001 19.9558L136.123 24.6388C135.532 24.4268 118.652 18.3398 101.672 28.2508C102.742 25.6978 104.158 23.4348 105.886 21.4838C113.345 13.0778 130.793 5.40678 152.21 25.4748C152.21 25.4748 152.366 25.4078 152.678 25.2738H152.689L153.179 27.0018L158.265 34.2488Z" fill="white"/>
<path opacity="0.2" d="M115.616 30.3414C115.616 30.3414 107.418 36.7834 107.808 45.7624L111.907 40.8824C111.907 40.8824 110.345 48.4954 112.493 55.9124L114.25 51.0324C114.25 51.0324 117.178 64.5014 131.427 66.6484C131.427 66.6484 137.005 46.2094 145.399 38.7914C145.399 38.7914 129.475 26.8274 115.616 30.3414Z" fill="black"/>
<path opacity="0.2" d="M275.274 31.2414C274.705 36.2134 273.2 51.5104 254.269 55.7134C254.269 55.7134 254.592 62.1914 255.663 66.6954C256.733 71.1994 264.95 80.5644 263.233 94.3344C261.505 108.07 255.373 118.661 243.566 125.741C255.44 92.5504 233.889 76.3064 228.961 72.4494C224.011 68.5804 224.223 65.1354 224.223 56.3164C224.223 47.4974 219.496 36.1034 219.496 36.1034C215.36 25.0774 208.826 19.9374 205.415 17.8864C204.021 17.0614 203.152 16.7384 203.152 16.7384C205.728 16.9614 209.998 18.1544 214.513 19.6374C214.546 19.6484 214.58 19.6594 214.602 19.6704C223.287 22.5244 232.831 26.4154 232.831 26.4154C246.009 9.05641 260.525 8.05341 268.14 9.04541C274.561 16.3684 275.642 28.0084 275.274 31.2414Z" fill="black"/>
<path opacity="0.4" d="M137.308 227.588C137.308 227.588 151.525 219.497 160.718 225.084C169.911 230.671 174.957 240.946 173.515 255.005C172.073 269.064 162.16 296.641 138.007 294.839C113.854 293.037 116.017 268.704 117.099 262.215C118.18 255.726 123.812 235.319 137.308 227.588Z" fill="black"/>
<path opacity="0.4" d="M317.355 238.124C317.355 238.124 310.34 223.887 300.849 227.808C291.358 231.728 280.629 246.171 280.835 261.233C281.041 276.295 283.724 284.548 291.564 288.675C299.405 292.802 307.658 279.803 307.658 279.803C307.658 279.803 321.894 254.218 317.355 238.124Z" fill="black"/>
<path d="M194.387 16.6484C200.47 16.7554 206.439 17.4874 212.212 18.8294C230.806 23.1524 250.296 35.5644 253.966 55.4884C254.646 59.1824 254.705 63.0864 255.66 66.7004C257.406 73.3074 261.703 78.6714 262.939 85.4994C266.147 103.213 253.727 127.066 234.136 128.408" stroke="#263238" stroke-miterlimit="10" stroke-linecap="round" stroke-linejoin="round"/>
<path d="M152.316 25.6906C160.476 21.9936 168.76 19.4466 176.979 18.0156" stroke="#263238" stroke-miterlimit="10" stroke-linecap="round" stroke-linejoin="round"/>
<path d="M211.461 72.3458C211.461 75.0178 210.335 77.1838 208.945 77.1838C207.556 77.1838 206.43 75.0178 206.43 72.3458C206.43 69.6738 207.556 67.5078 208.945 67.5078C210.335 67.5078 211.461 69.6738 211.461 72.3458Z" fill="#263238"/>
<path d="M242.808 68.2823C242.808 70.9543 241.682 73.1203 240.292 73.1203C238.903 73.1203 237.777 70.9543 237.777 68.2823C237.777 65.6103 238.903 63.4453 240.292 63.4453C241.682 63.4453 242.808 65.6113 242.808 68.2823Z" fill="#263238"/>
<path d="M228.285 77.2114C226.681 77.7024 226.013 79.5924 226.926 80.9994C228.739 83.7914 232.047 87.9464 235.766 88.1014C241.385 88.3354 242.322 78.9704 241.151 77.3314C240.199 75.9984 233.061 75.7494 228.285 77.2114Z" fill="#263238"/>
<path d="M98.1912 157.773C78.5352 181.382 66.1432 211.389 67.0462 242.521C67.1832 247.234 67.5532 252.275 69.4482 256.658C75.5452 270.756 82.7842 270.375 88.8812 266.565C94.9772 262.755 95.7402 239.893 95.7402 239.893C95.7402 239.893 98.7882 248.276 104.504 249.419C104.504 249.419 106.514 249.805 108.639 248.066" stroke="#263238" stroke-miterlimit="10" stroke-linecap="round" stroke-linejoin="round"/>
<path d="M129.235 79.5391C126.745 101.154 137.515 123.628 137.516 123.63C137.315 123.212 112.479 142.838 110.251 144.94C109.452 145.694 108.661 146.457 107.879 147.229" stroke="#263238" stroke-miterlimit="10" stroke-linecap="round" stroke-linejoin="round"/>
<path d="M223.895 75.1917C223.895 75.1917 229.781 70.6787 237.825 73.4257" stroke="#263238" stroke-miterlimit="10" stroke-linecap="round" stroke-linejoin="round"/>
<path d="M249.436 3.13013C251.115 2.81613 252.798 2.67913 254.451 2.74113C272.923 3.43413 278.699 27.9021 273.08 42.2371C269.867 50.4341 262.455 54.2881 253.966 55.4851" stroke="#263238" stroke-miterlimit="10" stroke-linecap="round" stroke-linejoin="round"/>
<path d="M226.941 23.9287C228.253 17.0817 233.259 10.9427 239.531 7.05469" stroke="#263238" stroke-miterlimit="10" stroke-linecap="round" stroke-linejoin="round"/>
<path d="M244.506 36.7794C244.506 36.7794 249.659 13.3064 266.261 18.0774" stroke="#263238" stroke-miterlimit="10" stroke-linecap="round" stroke-linejoin="round"/>
<path d="M248.096 28.193C248.096 28.193 261.682 25.14 263.781 35.063C265.88 44.986 252.044 47.977 252.044 47.977" stroke="#263238" stroke-miterlimit="10" stroke-linecap="round" stroke-linejoin="round"/>
<path d="M239.359 9.01081C239.359 9.01081 239.359 5.18881 240.888 3.50781" stroke="#263238" stroke-miterlimit="10" stroke-linecap="round" stroke-linejoin="round"/>
<path d="M244.187 2.49219C243.467 3.92419 243.11 5.53718 243.159 7.14018" stroke="#263238" stroke-miterlimit="10" stroke-linecap="round" stroke-linejoin="round"/>
<path d="M248.627 1C248.07 2.322 247.814 3.771 247.884 5.204" stroke="#263238" stroke-miterlimit="10" stroke-linecap="round" stroke-linejoin="round"/>
<path d="M229.707 72.7087C229.707 72.7087 229.165 72.4687 228.43 71.9297" stroke="#263238" stroke-linecap="round" stroke-linejoin="round"/>
<path d="M226.29 69.7859C225.248 68.3559 224.392 66.3399 224.47 63.6119C224.652 57.2249 223.267 25.7579 204.023 18.0859" stroke="#263238" stroke-linecap="round" stroke-linejoin="round" stroke-dasharray="3.04 3.04"/>
<path d="M202.591 17.5713C202.119 17.4193 201.638 17.2802 201.146 17.1562" stroke="#263238" stroke-linecap="round" stroke-linejoin="round"/>
<path d="M124.892 12.6797C123.645 12.7357 122.372 12.8797 121.072 13.1257C100.287 17.0577 92.1919 40.3427 104.5 62.5587C112.199 76.4547 125.171 79.0517 132.924 79.2467" stroke="#263238" stroke-miterlimit="10" stroke-linecap="round" stroke-linejoin="round"/>
<path d="M156.182 31.1049C156.182 31.1049 150.231 22.0039 140.436 16.5859" stroke="#263238" stroke-miterlimit="10" stroke-linecap="round" stroke-linejoin="round"/>
<path d="M150.078 43.0256C150.078 43.0256 129.388 19.4316 107.064 34.4956" stroke="#263238" stroke-miterlimit="10" stroke-linecap="round" stroke-linejoin="round"/>
<path d="M131.294 31.1094C131.294 31.1094 113.585 46.9534 132.511 61.7554" stroke="#263238" stroke-miterlimit="10" stroke-linecap="round" stroke-linejoin="round"/>
<path d="M131.451 69.0016C131.451 69.0016 132.654 50.8306 145.325 38.8906" stroke="#263238" stroke-miterlimit="10" stroke-linecap="round" stroke-linejoin="round"/>
<path d="M134.225 11.8594C135.263 13.2184 135.939 14.8514 136.166 16.5474" stroke="#263238" stroke-miterlimit="10" stroke-linecap="round" stroke-linejoin="round"/>
<path d="M137.379 11.5703C138.397 13.2903 138.91 15.3053 138.838 17.3033" stroke="#263238" stroke-miterlimit="10" stroke-linecap="round" stroke-linejoin="round"/>
<path d="M127.883 10.5156C129.504 11.8106 130.602 13.7426 130.888 15.7976" stroke="#263238" stroke-miterlimit="10" stroke-linecap="round" stroke-linejoin="round"/>
<path d="M150.297 126.539C150.297 126.539 188.146 138.748 221.416 131.423" stroke="#263238" stroke-miterlimit="10" stroke-linecap="round" stroke-linejoin="round"/>
<path d="M174.738 282.54C199.344 289.447 212.998 287.903 228.001 279.943C245.347 270.739 253.799 251.977 256.061 233.171C260.228 198.536 248.56 162.405 236.369 130.531" stroke="#263238" stroke-miterlimit="10" stroke-linecap="round" stroke-linejoin="round"/>
<path d="M211.076 285.307C211.064 285.545 261.981 259.64 228.439 133.867" stroke="#263238" stroke-miterlimit="10" stroke-linecap="round" stroke-linejoin="round" stroke-dasharray="3 3"/>
<path d="M225.533 281.908C225.533 281.908 255.898 304.84 284.589 297.757C313.28 290.673 323.415 242.25 316.521 236.343C316.521 236.343 319.124 214.479 306.47 213.951C293.816 213.422 289.989 223.108 289.989 223.108C289.989 223.108 287.638 214.643 280.986 217.112C274.334 219.581 263.794 231.141 256.874 233.936" stroke="#263238" stroke-miterlimit="10" stroke-linecap="round" stroke-linejoin="round"/>
<path d="M313.015 233.574C309.279 226.3 302.441 226.842 296.578 230.035C290.715 233.228 286.794 239.172 284.38 245.397C280.41 255.637 279.989 267.215 283.206 277.716C284.13 280.733 285.393 283.738 287.581 286.012C289.769 288.286 293.04 289.717 296.121 289.032C297.62 288.699 300.93 287.343 302.872 285.522" stroke="#263238" stroke-miterlimit="10" stroke-linecap="round" stroke-linejoin="round"/>
<path d="M236.684 280.797C236.684 280.797 255.229 292.236 283.363 281.99" stroke="#263238" stroke-miterlimit="10" stroke-linecap="round" stroke-linejoin="round" stroke-dasharray="3 3"/>
<path d="M73.252 262.885C75.766 262.503 77.707 260.52 79.286 258.527C87.746 247.851 91.314 234.217 94.673 221.015C95.715 222.26 97.542 221.245 98.746 220.155C102.996 216.31 104.712 210.484 106.41 205.01C110.985 190.264 116.811 175.793 125.22 162.843C133.629 149.893 144.739 138.475 158.325 131.141" stroke="#263238" stroke-miterlimit="10" stroke-linecap="round" stroke-linejoin="round" stroke-dasharray="3 3"/>
<path d="M243.414 126.266C243.414 126.266 282.794 166.179 284.345 215.724" stroke="#263238" stroke-miterlimit="10" stroke-linecap="round" stroke-linejoin="round"/>
<path d="M112.312 233.488C112.312 233.488 92.6899 290.926 133.361 301.629C174.031 312.332 187.232 254.894 185.091 247.045C185.091 247.045 200.075 238.483 194.01 226.71C189.247 217.464 175.459 222.429 175.459 222.429C175.459 222.429 176.529 201.737 160.832 198.169C145.135 194.601 136.572 211.726 136.572 211.726C136.572 211.726 125.358 197.56 114.453 205.661C101.966 214.937 112.312 233.488 112.312 233.488Z" stroke="#263238" stroke-miterlimit="10" stroke-linecap="round" stroke-linejoin="round"/>
<path d="M124.846 240.685C117.306 253.169 114.041 270.31 119.01 281.601C120.12 284.123 121.717 286.419 123.664 288.366C126.237 290.939 129.421 292.904 132.9 293.979C157.88 301.695 173.219 272.534 173.704 252.208C173.869 245.275 172.971 238.049 169.238 232.204C162.326 221.382 147.416 221.733 137.307 227.59C136.679 227.954 136.059 228.351 135.449 228.779" stroke="#263238" stroke-miterlimit="10" stroke-linecap="round" stroke-linejoin="round"/>
<path d="M129.666 204.863C129.666 204.863 133.367 177.566 146.784 151.195" stroke="#263238" stroke-miterlimit="10" stroke-linecap="round" stroke-linejoin="round"/>
<path d="M100.273 149.69C103.721 148.118 107.714 147.777 111.379 148.742" stroke="#263238" stroke-miterlimit="10" stroke-linecap="round" stroke-linejoin="round"/>
<path d="M98.6426 153.628C100.831 152.96 103.176 152.815 105.43 153.208" stroke="#263238" stroke-miterlimit="10" stroke-linecap="round" stroke-linejoin="round"/>
<path d="M128.836 228.547C131.158 229.132 133.404 230.014 135.504 231.164" stroke="#263238" stroke-miterlimit="10" stroke-linecap="round" stroke-linejoin="round"/>
<path d="M129.062 232.164C130.609 232.503 132.124 232.978 133.587 233.583" stroke="#263238" stroke-miterlimit="10" stroke-linecap="round" stroke-linejoin="round"/>
<path d="M123.508 239.008C124.757 239.051 126.007 239.094 127.256 239.137" stroke="#263238" stroke-miterlimit="10" stroke-linecap="round" stroke-linejoin="round"/>
<path d="M223.083 132.337C223.083 132.337 222.046 139.08 227.06 139.426C232.074 139.772 238.299 139.08 236.742 132.337C235.186 125.594 225.503 129.225 223.083 132.337Z" fill="#263238"/>
<path d="M176.562 143.086C176.562 143.086 178.577 158.107 188.329 159.449C198.081 160.791 226.549 134.974 226.549 134.974L227.237 129.891L176.562 143.086Z" fill="#263238"/>
<path d="M227.237 129.893C227.237 129.893 184.082 150.487 177.091 143.781C170.1 137.075 227.485 129.625 227.485 129.625L227.237 129.893Z" fill="#263238"/>
<path d="M176.562 143.086C176.562 143.086 178.577 158.107 188.329 159.449C198.081 160.791 226.549 134.974 226.549 134.974L227.237 129.891L176.562 143.086Z" fill="#263238"/>
<path opacity="0.2" d="M227.237 129.893C227.237 129.893 184.082 150.487 177.091 143.781C170.1 137.075 227.485 129.625 227.485 129.625L227.237 129.893Z" fill="black"/>
<path d="M233.011 127.875L232.07 131.813C232.07 131.813 247.749 146.631 264.635 150.249C281.52 153.867 275.834 132.158 275.834 132.158L233.011 127.875Z" fill="#263238"/>
<path d="M233.011 127.875L232.07 131.813C232.07 131.813 247.749 146.631 264.635 150.249C281.52 153.867 275.834 132.158 275.834 132.158L233.011 127.875Z" fill="#263238"/>
<path d="M233.012 127.871C233.012 127.871 267.952 139.192 274.784 134.312C281.615 129.433 254.093 122.991 233.012 127.871Z" fill="#263238"/>
<path opacity="0.2" d="M233.012 127.871C233.012 127.871 267.952 139.192 274.784 134.312C281.615 129.433 254.093 122.991 233.012 127.871Z" fill="black"/>
<path d="M226.143 135.575C226.143 135.575 218.609 164.743 212.6 177.731L228.054 187.175C228.054 187.175 234.014 149.388 229.943 134.461L226.143 135.575Z" fill="#263238"/>
<path d="M229.663 135.848C229.663 135.848 243.571 167.093 244.143 190.718L259.385 178.334C259.385 178.334 242.619 137.943 233.284 133.371C223.947 128.798 229.663 135.848 229.663 135.848Z" fill="#263238"/>
<path opacity="0.2" d="M243.533 125.828C243.566 125.861 243.622 125.917 243.711 126.017C243.566 125.983 243.488 125.961 243.488 125.961C243.499 125.917 243.522 125.872 243.533 125.828Z" fill="black"/>
<path d="M176.654 14.2266C178.879 15.2316 180.66 17.1776 181.464 19.4836" stroke="#263238" stroke-miterlimit="10" stroke-linecap="round" stroke-linejoin="round"/>
<path d="M181.795 14.2969C182.919 15.6499 183.908 17.1159 184.741 18.6659" stroke="#263238" stroke-miterlimit="10" stroke-linecap="round" stroke-linejoin="round"/>
<path d="M188.141 13.9141C189.174 15.7391 189.956 17.7061 190.457 19.7431" stroke="#263238" stroke-miterlimit="10" stroke-linecap="round" stroke-linejoin="round"/>
<path opacity="0.2" d="M159.709 130.188C139.42 151.771 129.206 204.812 129.206 204.812C129.206 204.812 121.064 198.746 112.442 206.889C103.247 215.573 112.309 233.487 112.309 233.487L108.006 253.565C108.006 253.565 107.917 253.8 107.716 254.224C107.995 251.002 108.351 249.005 108.351 249.005C108.351 249.005 100.391 252.116 96.1315 240.777C96.1315 240.777 95.7635 265.561 84.9045 268.148C79.6755 269.386 75.7955 267.19 73.0195 263.4C86.1415 258.461 94.6705 221.022 94.6705 221.022C104.872 220.788 111.767 186.769 119.147 172.882C133.809 145.297 159.007 130.577 159.709 130.188Z" fill="black"/>
<path opacity="0.2" d="M164.137 199.258C164.137 199.258 178.727 201.884 181.061 214.431C181.061 214.431 192.441 208.595 199.736 218.224C207.031 227.853 205.28 240.4 195.359 248.571C195.359 248.571 193.608 272.79 180.477 283.878L174.733 282.537C174.733 282.537 185.035 260.093 185.09 247.037C185.09 247.037 197.109 240.109 194.191 227.853C191.273 215.598 175.458 222.42 175.458 222.42C175.458 222.42 175.225 205.969 164.137 199.258Z" fill="black"/>
</svg>
