<svg xmlns="http://www.w3.org/2000/svg" version="1.1" xmlns:xlink="http://www.w3.org/1999/xlink" width="512"
    height="512" x="0" y="0" viewBox="0 0 48 48" style="enable-background:new 0 0 512 512" xml:space="preserve"
    fill-rule="evenodd" className="">
    <g>
        <path
            d="M48 19v26a3 3 0 0 1-3 3h-7.402a7.481 7.481 0 0 0 2.376-4.878l.024-.623c.004-.091 0-.182-.009-.272l-.099-.977a1.977 1.977 0 0 0-.073-.366l-.306-1.029a1.953 1.953 0 0 0-.147-.361l-.499-.949a1.977 1.977 0 0 0-.216-.328l-.681-.841a1.981 1.981 0 0 0-.277-.28l-.833-.692a1.975 1.975 0 0 0-.325-.22l-.943-.511a2.034 2.034 0 0 0-.36-.152l-1.024-.318a2.014 2.014 0 0 0-.384-.079l-1.077-.113a2.074 2.074 0 0 0-.209-.011H20V19zm-15 7v-2a1 1 0 0 1 2 0v2h2a1 1 0 0 1 0 2h-2v2a1 1 0 0 1-2 0v-2h-2a1 1 0 0 1 0-2zm8.537-15 4.717 4.043A5.008 5.008 0 0 1 47.649 17H20.351a5.008 5.008 0 0 1 1.395-1.957L26.463 11zM41 9H27V6h14zM27.02 4h14.004a2 2 0 0 0 0-4H27.02a2 2 0 0 0 0 4z"
            fill="#000000" opacity="1" data-original="#000000" className=""></path>
        <path
            d="M5.5 48A5.5 5.5 0 0 1 0 42.5v-.002A5.499 5.499 0 0 1 5.498 37H32.57l.034.001.035.001.034.001.034.001.034.001.034.002.034.002.034.002.033.002.034.002.034.003.034.003.034.003.033.003.034.003.034.004.033.004.034.004.034.004.033.005.033.004.034.005.033.005.034.006.033.005.033.006.033.006.033.006.034.006.033.007.033.006.033.007.032.007.033.008.033.007.033.008.033.008.032.008.033.008.032.009.033.008.032.009.032.009.033.01.032.009.032.01.032.01.032.01.032.01.032.01.032.011.032.011.031.011.032.011.031.011.032.012.031.012.031.012.032.012.031.012.031.013.031.013.031.012.031.014.031.013.03.013.031.014.03.014.031.014.03.014.03.015.031.014.03.015.03.015.03.015.03.015.029.016.03.016.03.016.029.016.029.016.03.016.029.017.029.017.029.017.029.017.029.017.028.018.029.018.028.017.029.018.028.019.028.018.028.019.028.019.028.018.028.02.028.019.027.019.027.02.028.02.027.02.027.02.027.02.027.021.027.021.026.02.027.022.026.021.026.021.027.022.026.021.025.022.026.022.026.023.025.022.026.023.025.022.025.023.025.023.025.024.025.023.025.024.024.023.024.024.025.024.024.025.024.024.023.024.024.025.023.025.024.025.023.025.023.025.022.025.023.026.022.025.023.026.022.026.022.025.021.026.022.027.021.026.022.026.021.027.02.026.021.027.021.027.02.027.02.027.02.027.02.028.02.027.019.027.019.028.02.028.019.028.018.028.019.028.018.028.019.028.018.029.017.028.018.029.018.028.017.029.017.029.017.029.017.029.017.029.016.03.016.029.016.029.016.03.016.03.016.029.015.03.015.03.015.03.015.03.014.031.015.03.014.03.014.031.014.03.014.031.013.03.013.031.014.031.012.031.013.031.013.031.012.031.012.032.012.031.012.031.012.032.011.031.011.032.011.032.011.031.011.032.01.032.01.032.01.032.01.032.01.032.009.032.01.033.009.032.009.032.008.033.009.032.008.033.008.032.008.033.008.033.007.033.008.033.007.032.007.033.006.033.007.033.006.034.006.033.006.033.006.033.005.033.006.034.005.033.005.034.004.033.005.034.004.033.004.034.004.033.004.034.003.034.003.033.003.034.003.034.003.034.002.034.002.033.002.034.002.034.002.034.001.034.001.034.001.034.001.035.001.034V42.571l-.001.036-.001.035-.001.035-.001.036-.001.035-.002.035-.002.035-.002.035-.002.035-.003.035-.003.035A5.502 5.502 0 0 1 32.571 48H32.5zM18 39H5.498A3.497 3.497 0 0 0 2 42.498v.002A3.5 3.5 0 0 0 5.5 46H18zM17.086 35H6.574C2.247 30.438.439 24.356 1.151 18.522a1 1 0 0 1 .871-.871c5.623-.687 11.477.968 15.978 4.964v10.471l-3.322-3.322v-3.75a1 1 0 0 0-2 0v1.75l-2.242-2.243v-3.75a1.001 1.001 0 0 0-2 0v1.75l-2.143-2.142a.999.999 0 1 0-1.414 1.414l3.91 3.91H6.961a1.001 1.001 0 0 0 0 2h3.828l3.343 3.343h-1.829a1 1 0 0 0 0 2h3.829zM16.375 18.905a22.271 22.271 0 0 0-9.147-3.24c-.838-5.54.674-11.009 3.877-15.266a.998.998 0 0 1 1.19-.319c4.839 2.058 8.841 5.962 10.91 11.078l-2.761 2.367a7.005 7.005 0 0 0-2.339 4.107l-.452-1.685 1.875-3.248a1 1 0 0 0-1.732-1l-.875 1.516-.821-3.064 1.875-3.248a1 1 0 0 0-1.732-1l-.875 1.516-.784-2.927a1 1 0 0 0-1.932.518l1.431 5.341-1.583-.914a1 1 0 0 0-1 1.732l3.316 1.915z"
            fill="#000000" opacity="1" data-original="#000000" className=""></path>
    </g>
</svg>