<svg width="512" height="512" viewBox="0 0 512 512" fill="none" xmlns="http://www.w3.org/2000/svg">
<path d="M491.312 385.089C475.924 372.183 385.67 315.03 370.668 317.653C363.625 318.903 358.238 324.907 343.817 342.11C337.149 350.577 329.825 358.507 321.914 365.826C307.42 362.325 293.389 357.124 280.115 350.332C228.055 324.987 185.998 282.917 160.668 230.85C153.876 217.575 148.675 203.545 145.174 189.051C152.493 181.14 160.423 173.816 168.89 167.147C186.075 152.727 192.097 147.375 193.347 140.296C195.97 125.26 138.765 35.041 125.911 19.6523C120.524 13.2785 115.629 9 109.361 9C91.1901 9 9 110.628 9 123.799C9 124.873 10.7607 230.674 144.381 366.619C280.326 500.239 386.127 502 387.201 502C400.372 502 502 419.81 502 401.639C502 395.371 497.721 390.476 491.312 385.089ZM378.75 237.893H413.964C413.922 200.548 399.069 164.745 372.662 138.338C346.255 111.931 310.452 97.0777 273.107 97.0357V132.25C301.117 132.278 327.971 143.417 347.777 163.223C367.583 183.029 378.722 209.883 378.75 237.893Z" fill="white"/>
<path d="M466.786 237.893H502C501.93 177.208 477.793 119.029 434.882 76.1184C391.971 33.2078 333.792 9.0699 273.107 9V44.2143C324.456 44.2749 373.683 64.6997 409.992 101.008C446.301 137.317 466.725 186.545 466.786 237.893Z" fill="white"/>
</svg>
