<svg xmlns="http://www.w3.org/2000/svg" version="1.1" xmlns:xlink="http://www.w3.org/1999/xlink" width="512"
    height="512" x="0" y="0" viewBox="0 0 24 24" style="enable-background:new 0 0 512 512" xml:space="preserve"
    class="">
    <g>
        <g fill="#000">
            <path
                d="M8.854 8.146a.5.5 0 1 0-.708.708L11.293 12l-3.147 3.146a.5.5 0 0 0 .708.708L12 12.707l3.146 3.147a.5.5 0 0 0 .708-.708L12.707 12l3.147-3.146a.5.5 0 0 0-.708-.708L12 11.293z"
                fill="#000000" opacity="1" data-original="#000000" class=""></path>
            <path fill-rule="evenodd"
                d="M2 7a5 5 0 0 1 5-5h10a5 5 0 0 1 5 5v10a5 5 0 0 1-5 5H7a5 5 0 0 1-5-5zm5-4h10a4 4 0 0 1 4 4v10a4 4 0 0 1-4 4H7a4 4 0 0 1-4-4V7a4 4 0 0 1 4-4z"
                clip-rule="evenodd" fill="#000000" opacity="1" data-original="#000000" class=""></path>
        </g>
    </g>
</svg>