<svg width="25" height="25" viewBox="0 0 25 25" fill="none" xmlns="http://www.w3.org/2000/svg">
    <g clip-path="url(#clip0_3515_3283)">
        <path
            d="M16.6113 14.5771C17.8314 12.4638 16.8708 10.3348 16.0232 8.45644C15.9122 8.2104 15.8046 7.97171 15.7046 7.7391C15.9746 7.6964 16.2533 7.65691 16.5451 7.61579C18.6296 7.32189 20.9924 6.98875 22.0937 5.08132C22.1406 5.00008 22.1533 4.90353 22.129 4.81292C22.1047 4.72231 22.0455 4.64505 21.9642 4.59815C21.883 4.55124 21.7864 4.53853 21.6958 4.56281C21.6052 4.58709 21.528 4.64637 21.4811 4.72761C20.5522 6.33642 18.3709 6.64393 16.4463 6.9153C16.0939 6.96498 15.7602 7.01232 15.4338 7.06646C15.3119 6.74197 15.1789 6.41506 15.0382 6.07003C14.2799 4.2106 13.4959 2.2879 14.4358 0.66002C14.4827 0.57878 14.4954 0.482235 14.4711 0.391623C14.4468 0.301012 14.3876 0.223756 14.3063 0.176852C14.2251 0.129948 14.1285 0.117237 14.0379 0.141517C13.9473 0.165796 13.8701 0.225076 13.8231 0.306316C12.7101 2.23423 13.599 4.41396 14.3831 6.3373C14.5004 6.62453 14.6119 6.89907 14.7156 7.16741C14.4574 7.19702 14.1897 7.22293 13.9137 7.24936C11.8799 7.44394 9.5749 7.66449 8.34074 9.80212C7.22766 11.73 8.11657 13.9098 8.9007 15.8331C9.01796 16.1203 9.12952 16.3949 9.23317 16.6632C8.97496 16.6928 8.70734 16.7187 8.43125 16.7452C6.39749 16.9397 4.0925 17.1603 2.85834 19.2979C2.81143 19.3792 2.79872 19.4757 2.823 19.5663C2.84728 19.6569 2.90656 19.7342 2.9878 19.7811C3.06904 19.828 3.16559 19.8407 3.2562 19.8164C3.34681 19.7922 3.42407 19.7329 3.47097 19.6516C4.52282 17.8298 6.5439 17.6363 8.49852 17.4493C8.8444 17.4162 9.1778 17.3841 9.49986 17.3436C9.62214 17.6358 9.7564 17.9338 9.89602 18.2432C10.7117 20.0508 11.5551 21.9199 10.5162 23.7192C10.4693 23.8005 10.4566 23.897 10.4809 23.9876C10.5052 24.0782 10.5645 24.1555 10.6457 24.2024C10.727 24.2493 10.8235 24.262 10.9141 24.2377C11.0047 24.2134 11.082 24.1542 11.1289 24.0729C12.349 21.9596 11.3884 19.8306 10.5408 17.9522C10.4298 17.7062 10.3222 17.4675 10.2222 17.2349C10.4922 17.1922 10.7709 17.1527 11.0627 17.1116C13.1472 16.8177 15.51 16.4846 16.6113 14.5771ZM9.95145 16.5623C9.82952 16.2378 9.69658 15.9109 9.55587 15.5659C8.7975 13.7064 8.01352 11.7837 8.95338 10.1558C10.0052 8.33397 12.0263 8.14049 13.9809 7.95352C14.3268 7.92036 14.6602 7.88832 14.9824 7.8476C15.1047 8.13982 15.2389 8.43783 15.3785 8.74716C16.1941 10.555 17.0375 12.4241 15.9987 14.2234C15.0698 15.8322 12.8884 16.1397 10.9639 16.4111C10.6115 16.4608 10.2778 16.5081 9.95145 16.5623Z"
            fill="#add100" />
        <path
            d="M11.5897 15.0842L10.4181 14.4077C10.3368 14.3608 10.2403 14.3481 10.1497 14.3724C10.0591 14.3967 9.98182 14.456 9.93492 14.5372C9.88802 14.6185 9.87531 14.715 9.89958 14.8056C9.92386 14.8962 9.98314 14.9735 10.0644 15.0204L11.236 15.6968C11.3173 15.7437 11.4138 15.7565 11.5044 15.7322C11.5951 15.7079 11.6723 15.6486 11.7192 15.5674C11.7661 15.4861 11.7788 15.3896 11.7545 15.299C11.7303 15.2084 11.671 15.1311 11.5897 15.0842ZM13.5407 14.3298L10.096 12.3409C10.0147 12.294 9.91818 12.2813 9.82757 12.3056C9.73696 12.3299 9.6597 12.3892 9.6128 12.4704C9.56589 12.5516 9.55318 12.6482 9.57746 12.7388C9.60174 12.8294 9.66102 12.9067 9.74226 12.9536L13.187 14.9424C13.2683 14.9893 13.3648 15.002 13.4554 14.9777C13.546 14.9535 13.6233 14.8942 13.6702 14.8129C13.7171 14.7317 13.7298 14.6351 13.7055 14.5445C13.6812 14.4539 13.622 14.3767 13.5407 14.3298ZM15.1414 13.7816C15.1883 13.7003 15.201 13.6038 15.1767 13.5132C15.1525 13.4226 15.0932 13.3453 15.0119 13.2984L10.2535 10.5511C10.1723 10.5042 10.0758 10.4915 9.98515 10.5158C9.89454 10.5401 9.81728 10.5994 9.77038 10.6806C9.72348 10.7618 9.71076 10.8584 9.73504 10.949C9.75932 11.0396 9.8186 11.1169 9.89984 11.1638L14.6582 13.911C14.7395 13.9579 14.836 13.9706 14.9266 13.9464C15.0172 13.9221 15.0945 13.8628 15.1414 13.7816ZM13.3219 9.37815L14.4936 10.0546C14.5748 10.1015 14.6714 10.1142 14.762 10.0899C14.8526 10.0657 14.9299 10.0064 14.9768 9.92514C15.0237 9.8439 15.0364 9.74736 15.0121 9.65674C14.9878 9.56613 14.9285 9.48888 14.8473 9.44197L13.6756 8.76552C13.5944 8.71861 13.4978 8.7059 13.4072 8.73018C13.3166 8.75446 13.2394 8.81374 13.1925 8.89498C13.1456 8.97622 13.1328 9.07276 13.1571 9.16338C13.1814 9.25399 13.2407 9.33124 13.3219 9.37815ZM11.371 10.1324L14.8158 12.1213C14.897 12.1682 14.9936 12.1809 15.0842 12.1566C15.1748 12.1323 15.2521 12.073 15.299 11.9918C15.3459 11.9106 15.3586 11.814 15.3343 11.7234C15.31 11.6328 15.2507 11.5555 15.1695 11.5086L11.7247 9.5198C11.6435 9.4729 11.547 9.46019 11.4563 9.48446C11.3657 9.50874 11.2885 9.56802 11.2416 9.64926C11.1947 9.7305 11.182 9.82705 11.2062 9.91766C11.2305 10.0083 11.2898 10.0855 11.371 10.1324ZM9.01118 19.5504C9.09242 19.5973 9.18897 19.61 9.27958 19.5857C9.37019 19.5615 9.44745 19.5022 9.49435 19.4209C9.54125 19.3397 9.55396 19.2432 9.52969 19.1525C9.50541 19.0619 9.44613 18.9847 9.36488 18.9378L8.19322 18.2613C8.11198 18.2144 8.01544 18.2017 7.92483 18.226C7.83422 18.2503 7.75696 18.3095 7.71006 18.3908C7.66315 18.472 7.65044 18.5686 7.67472 18.6592C7.699 18.7498 7.75828 18.827 7.83952 18.874L9.01118 19.5504ZM9.6871 21.0044L6.24234 19.0156C6.1611 18.9687 6.06456 18.956 5.97394 18.9803C5.88333 19.0045 5.80608 19.0638 5.75917 19.1451C5.71227 19.2263 5.69956 19.3229 5.72384 19.4135C5.74812 19.5041 5.8074 19.5813 5.88864 19.6282L9.3334 21.6171C9.41464 21.664 9.51118 21.6767 9.60179 21.6524C9.6924 21.6281 9.76966 21.5688 9.81656 21.4876C9.86347 21.4064 9.87618 21.3098 9.8519 21.2192C9.82762 21.1286 9.76834 21.0513 9.6871 21.0044ZM15.9005 4.91194C15.8193 4.86504 15.7227 4.85233 15.6321 4.87661C15.5415 4.90088 15.4642 4.96016 15.4173 5.0414C15.3704 5.12264 15.3577 5.21919 15.382 5.3098C15.4063 5.40041 15.4655 5.47767 15.5468 5.52457L16.7184 6.20103C16.7997 6.24794 16.8962 6.26065 16.9868 6.23637C17.0775 6.21209 17.1547 6.15281 17.2016 6.07157C17.2485 5.99033 17.2612 5.89378 17.237 5.80317C17.2127 5.71256 17.1534 5.6353 17.0722 5.5884L15.9005 4.91194ZM15.2247 3.45776L18.6694 5.44659C18.7507 5.4935 18.8472 5.50621 18.9378 5.48193C19.0284 5.45765 19.1057 5.39837 19.1526 5.31713C19.1995 5.23589 19.2122 5.13934 19.1879 5.04873C19.1636 4.95812 19.1044 4.88086 19.0231 4.83396L15.5784 2.84513C15.4971 2.79822 15.4006 2.78551 15.31 2.80979C15.2194 2.83407 15.1421 2.89335 15.0952 2.97459C15.0483 3.05583 15.0356 3.15238 15.0599 3.24299C15.0841 3.3336 15.1434 3.41086 15.2247 3.45776Z"
            fill="#add100" />
    </g>
    <defs>
        <clipPath id="clip0_3515_3283">
            <rect width="25" height="25" fill="white" />
        </clipPath>
    </defs>
</svg>