<svg width="512" height="512" viewBox="0 0 512 512" fill="none" xmlns="http://www.w3.org/2000/svg">
    <path
        d="M303.418 134.248C295.087 125.917 281.579 125.917 273.248 134.248C264.917 142.579 264.917 156.087 273.248 164.418L364.83 256L273.248 347.582C264.917 355.913 264.917 369.421 273.248 377.752C281.579 386.083 295.087 386.083 303.418 377.752L410.085 271.085C418.416 262.754 418.416 249.246 410.085 240.915L303.418 134.248Z"
        fill="black" />
    <path
        d="M154.418 134.248C146.087 125.917 132.579 125.917 124.248 134.248C115.917 142.579 115.917 156.087 124.248 164.418L215.83 256L124.248 347.582C115.917 355.913 115.917 369.421 124.248 377.752C132.579 386.083 146.087 386.083 154.418 377.752L261.085 271.085C269.416 262.754 269.416 249.246 261.085 240.915L154.418 134.248Z"
        fill="black" />
</svg>