<svg width="512" height="512" viewBox="0 0 512 512" fill="none" xmlns="http://www.w3.org/2000/svg">
<path fill-rule="evenodd" clip-rule="evenodd" d="M48.6141 86.9547L196.851 235.255C229.181 267.524 282.031 267.552 314.388 235.255L462.625 86.9547C462.975 86.6062 463.245 86.1849 463.414 85.7206C463.584 85.2564 463.649 84.7605 463.606 84.2681C463.562 83.7758 463.411 83.2991 463.162 82.8718C462.914 82.4445 462.575 82.0771 462.168 81.7956C447.049 71.2512 428.653 65 408.838 65H102.402C82.5856 65 64.19 71.2523 49.0706 81.7956C48.6643 82.0771 48.325 82.4445 48.0766 82.8718C47.8282 83.2991 47.6768 83.7758 47.6333 84.2681C47.5897 84.7605 47.655 85.2564 47.8245 85.7206C47.994 86.1849 48.2635 86.6062 48.6141 86.9547ZM9.00003 158.401C8.98796 143.333 12.6499 128.489 19.6687 115.155C19.9138 114.685 20.2662 114.28 20.6975 113.971C21.1288 113.663 21.6267 113.461 22.1508 113.381C22.6749 113.302 23.2104 113.347 23.7137 113.513C24.2171 113.68 24.674 113.962 25.0476 114.339L171.407 260.699C217.755 307.114 293.457 307.14 339.832 260.699L486.192 114.339C486.566 113.962 487.023 113.68 487.526 113.513C488.03 113.347 488.565 113.302 489.089 113.381C489.613 113.461 490.111 113.663 490.542 113.971C490.974 114.28 491.326 114.685 491.571 115.155C498.589 128.489 502.251 143.333 502.24 158.401V353.382C502.24 404.923 460.314 446.784 408.838 446.784H102.402C50.9268 446.784 9.00003 404.923 9.00003 353.382V158.401Z" fill="white"/>
</svg>
