<svg width="50" height="50" viewBox="0 0 50 50" fill="none" xmlns="http://www.w3.org/2000/svg">
<path d="M29.5807 25.039L49.05 5.56934C50.3169 4.3029 50.3169 2.25518 49.05 0.988894C47.7836 -0.277548 45.7359 -0.277548 44.4696 0.988894L24.9998 20.4584L5.53074 0.988894C4.26369 -0.277548 2.21673 -0.277548 0.950287 0.988894C-0.316762 2.25534 -0.316762 4.3029 0.950287 5.56934L20.4192 25.039L0.950439 44.5085C-0.31661 45.7749 -0.31661 47.8226 0.950439 49.0889C1.25084 49.3902 1.60782 49.6291 2.00085 49.792C2.39388 49.9549 2.81522 50.0385 3.24066 50.038C4.06977 50.038 4.89919 49.7206 5.53089 49.0889L24.9998 29.6194L44.4696 49.0889C44.77 49.3901 45.127 49.629 45.52 49.7919C45.913 49.9548 46.3344 50.0384 46.7598 50.038C47.5889 50.038 48.4183 49.7206 49.05 49.0889C50.3169 47.8225 50.3169 45.7749 49.05 44.5085L29.5807 25.039Z" fill="url(#paint0_linear_3582_3260)"/>
<defs>
<linearGradient id="paint0_linear_3582_3260" x1="25.0001" y1="0.0390625" x2="25.0001" y2="50.038" gradientUnits="userSpaceOnUse">
<stop stop-color="#87DA57"/>
<stop offset="0.385" stop-color="#128B39"/>
<stop offset="0.665" stop-color="#148A3A"/>
<stop offset="1" stop-color="#78B654"/>
</linearGradient>
</defs>
</svg>
