<svg xmlns="http://www.w3.org/2000/svg" version="1.1" xmlns:xlink="http://www.w3.org/1999/xlink" width="512"
    height="512" x="0" y="0" viewBox="0 0 66 66" style="enable-background:new 0 0 512 512" xml:space="preserve"
    className="">
    <g>
        <path
            d="M41.3 52.1 28.4 29.8V14.2c0-.5-.5-1-1-1H15.7c-.5 0-1 .5-1 1v15.6l-13 22.4c-1.1 2-1 4.4.2 6.3s3.2 3.1 5.5 3.1h28.2c2.3 0 4.3-1.2 5.5-3.1 1.2-2 1.3-4.3.2-6.4zM16.6 30.6c.1-.2.1-.3.1-.5V15.2h9.7V30c0 .2 0 .3.1.5L33 41.8H10z"
            fill="#000000" opacity="1" data-original="#000000" className=""></path>
        <path
            d="M19.5 39.8c.6 0 1-.4 1-1v-4.6c0-.6-.4-1-1-1s-1 .4-1 1v4.6c0 .6.4 1 1 1zM23.4 28.5c.6 0 1-.4 1-1v-4.6c0-.6-.4-1-1-1s-1 .4-1 1v4.6c0 .6.5 1 1 1zM55.2 6.7c-3-3-7.9-3-10.9 0l-11 11c-3 3-3 7.9 0 10.9s7.9 3 10.9 0l11.1-11.1c3-2.9 3-7.8-.1-10.8zM42.8 27.3c-2.2 2.2-5.9 2.2-8.1 0s-2.3-5.8 0-8.1l4.8-4.8 8.1 8.1zM62.7 23.3c-3-3-7.9-3.1-10.9 0l-11 11c-3 3-3 7.9 0 10.9s7.9 3 10.9 0l11.1-11.1c3-2.9 3-7.8-.1-10.8zm-1.4 9.5-4.8 4.8-8.1-8.1 4.8-4.8c2.2-2.2 5.9-2.2 8.1 0 2.3 2.2 2.3 5.9 0 8.1z"
            fill="#000000" opacity="1" data-original="#000000" className=""></path>
    </g>
</svg>