<svg xmlns="http://www.w3.org/2000/svg" width="50" height="50" viewBox="0 0 50 50" fill="none">
    <path
        d="M25 50C11.1929 50 0 38.8071 0 25C0 11.1929 11.1929 0 25 0C38.8071 0 50 11.1929 50 25C50 38.8071 38.8071 50 25 50ZM25 47.9167C37.6565 47.9167 47.9167 37.6565 47.9167 25C47.9167 12.3435 37.6565 2.08333 25 2.08333C12.3435 2.08333 2.08333 12.3435 2.08333 25C2.08333 37.6565 12.3435 47.9167 25 47.9167Z"
        fill="white"></path>
    <path
        d="M44.5815 35.5139L46.2407 37.129L47.6938 35.6361L45.6161 33.6136C45.3561 33.3605 44.9831 33.261 44.6316 33.3508L39.5617 34.6467C38.8858 34.8195 38.5674 35.5949 38.927 36.1928L42.3769 41.9296L44.1623 40.8559L41.4337 36.3186L44.5815 35.5139Z"
        fill="white"></path>
    <path
        d="M23.9358 16.9333C23.1864 17.0222 22.5456 17.1803 22.0278 17.441C20.4149 18.2533 19.8374 19.1321 20.0384 20.6227C20.1605 21.5282 20.8651 22.0868 21.9639 22.5739C21.8849 22.675 21.8055 22.7805 21.726 22.8902C21.3316 23.4349 21.0002 24.0092 20.7533 24.6107C20.1657 26.0421 20.0525 26.3928 20.0775 27.0743C20.1013 27.7211 20.3328 28.3074 20.8292 29.1159C21.3483 29.9614 22.0399 30.4124 22.9855 30.6951C23.1485 30.7439 23.2098 30.7599 23.5553 30.8471C24.0281 30.9665 24.2018 31.0345 24.2929 31.119C24.3908 31.2097 24.8068 32.1044 25.269 33.3264C25.3819 33.6249 25.4989 33.9436 25.6191 34.28C25.9005 35.067 26.1868 35.9123 26.4626 36.758C26.628 37.2654 26.7529 37.6594 26.8222 37.8827C27.0713 38.6854 28.1194 38.8778 28.6374 38.216C28.7844 38.0282 29.0383 37.6969 29.3636 37.2604C29.9053 36.5334 30.4472 35.7785 30.9543 35.0329C31.1699 34.716 31.375 34.4068 31.5681 34.1068C32.2683 33.0192 32.7895 32.0894 33.0928 31.342C33.3573 30.6901 33.5543 29.9358 33.6958 29.0965C33.7962 28.5005 33.8649 27.897 33.9083 27.308C34.0599 27.4025 34.2124 27.4851 34.366 27.5547C34.8243 27.7623 35.2847 27.8505 35.7466 27.7708C36.3728 27.6628 36.7377 27.409 37.2995 26.8652C37.7209 26.4579 37.704 26.4642 37.9714 26.5844C38.1443 26.6621 38.3061 26.9385 38.4921 27.5726C38.5253 27.686 38.5582 27.8047 38.6263 28.0523C39.0507 29.5783 39.5318 30.2984 40.8625 30.0723C42.0173 29.8761 42.6096 28.9894 43.3215 27.2239C43.4003 27.0284 43.6451 26.4002 43.6671 26.3449C43.7516 26.1318 43.8202 25.967 43.8811 25.8331C43.966 25.8866 44.0798 25.9593 44.2366 26.0595C45.2196 26.6876 45.888 26.9381 46.762 26.7122C46.8865 26.68 47.0086 26.6369 47.1277 26.5828C47.9254 26.2209 48.4975 25.5026 48.9327 24.5516C49.2585 23.8396 49.4479 23.1453 49.5364 22.655L49.7214 21.6299L47.6712 21.2599L47.4862 22.285C47.4259 22.6187 47.2781 23.1606 47.0383 23.6847C46.7924 24.2221 46.5115 24.5747 46.2668 24.6857C46.1223 24.7257 45.8712 24.6316 45.3583 24.3039C44.5864 23.8107 44.6089 23.8243 44.2981 23.7073C43.6333 23.4573 42.9502 23.5584 42.4682 24.1446C42.3297 24.313 42.2094 24.5107 42.0895 24.7502C41.9778 24.9735 41.8701 25.2248 41.7305 25.5769C41.7044 25.6426 41.4626 26.2629 41.3893 26.4447C41.1235 27.1039 40.8877 27.5524 40.7222 27.7971C40.6958 27.7128 40.6664 27.6126 40.6334 27.494C40.5674 27.2538 40.5296 27.1172 40.4912 26.9864C40.1465 25.8107 39.7233 25.0878 38.8256 24.6842C37.6147 24.1399 36.8186 24.4329 35.9154 25.3055C35.5759 25.6341 35.4764 25.7033 35.3924 25.7178C35.3935 25.7176 35.3347 25.7064 35.2258 25.657C35.0085 25.5586 34.7379 25.3657 34.4508 25.1075C34.1347 24.8231 33.8731 24.5338 33.7304 24.3554C33.1015 23.5696 31.8344 24.044 31.8763 25.0497C31.8771 25.0672 31.8771 25.0672 31.8802 25.182C31.9043 26.2435 31.8466 27.5333 31.6414 28.7501C31.5233 29.4507 31.3634 30.0631 31.1623 30.5586C30.9184 31.1598 30.4522 31.9914 29.8164 32.9791C29.6332 33.2636 29.4377 33.5583 29.2317 33.8612C28.8973 34.3529 28.5459 34.8506 28.189 35.3416C27.9879 34.7394 27.7835 34.1453 27.5808 33.5785C27.4565 33.2308 27.3352 32.9002 27.2176 32.5893C26.5994 30.9549 26.1592 30.0081 25.709 29.5909C25.275 29.1888 24.8718 29.0308 24.0653 28.8272C23.7554 28.7489 23.7039 28.7355 23.5822 28.6991C23.0865 28.5509 22.8204 28.3773 22.6046 28.0259C22.2791 27.4957 22.1673 27.2127 22.1595 26.9979C22.1503 26.7474 22.2314 26.4959 22.6805 25.4018C22.8603 24.9639 23.1103 24.5306 23.4134 24.1121C23.8243 23.5447 24.2347 23.1227 24.487 22.9077C25.1322 22.358 24.8857 21.3089 24.0632 21.104C23.7714 21.0313 23.3061 20.8865 22.8545 20.6897C22.3742 20.4805 22.092 20.2624 22.103 20.3442C22.0329 19.8242 22.085 19.7448 22.9649 19.3017C23.2271 19.1697 23.6516 19.0649 24.1812 19.0021C24.7896 18.9299 25.4515 18.9188 26.0474 18.944C26.1478 18.9482 26.2216 18.9526 26.2504 18.9547C26.9056 19.0025 27.4409 18.4392 27.3598 17.7872C27.3591 17.7835 27.3546 17.7372 27.3503 17.6751C27.2969 16.9009 27.3846 15.9739 27.7179 15.1187C27.9178 14.6057 28.1946 14.161 28.5569 13.7956C29.2976 13.0484 30.0839 12.6154 31.5712 12.0349C31.7546 11.9636 31.7546 11.9636 31.9406 11.8918C33.2461 11.3872 33.8631 11.1092 34.5883 10.6363C35.1113 10.2953 35.7277 9.84412 36.4219 9.3012C36.6015 9.1607 36.7854 9.01479 36.973 8.86396C37.6191 8.34468 38.2824 7.7897 38.9273 7.23489C39.3144 6.90191 39.6101 6.64229 39.7782 6.49234L40.5557 5.79909L39.1692 4.24414L38.3917 4.9374C38.2322 5.0796 37.9456 5.33123 37.5686 5.65557C36.9401 6.19631 36.294 6.73688 35.6679 7.2401C35.4872 7.38531 35.3105 7.52552 35.1384 7.66016C34.4873 8.16942 33.9156 8.58785 33.4504 8.89119C32.8855 9.25952 32.3625 9.4952 31.1896 9.94849C31.0031 10.0205 31.0031 10.0205 30.8137 10.0942C29.0769 10.7721 28.0723 11.3252 27.0773 12.3289C26.5036 12.9076 26.0758 13.595 25.7768 14.3622C25.4505 15.1994 25.2972 16.0508 25.2606 16.8497C24.8224 16.8557 24.374 16.8813 23.9358 16.9333Z"
        fill="white"></path>
    <path
        d="M9.93816 36.0687C9.93816 33.6367 9.43954 32.436 8.15151 31.2393C8.01208 31.1097 7.44249 30.606 7.29839 30.4729C6.96823 30.1679 6.69401 29.8849 6.42323 29.5595C6.24682 29.3475 6.06496 29.1405 5.87812 28.9386C5.09718 28.0945 4.26227 27.3703 3.42587 26.7638C2.91796 26.3956 2.51523 26.1445 2.2694 26.0099L1.35562 25.5099L0.355469 27.3374L1.26925 27.8375C1.44144 27.9317 1.77026 28.1367 2.2029 28.4505C2.93411 28.9806 3.66679 29.6162 4.34893 30.3534C4.51127 30.5289 4.66903 30.7084 4.82181 30.892C5.15586 31.2935 5.49194 31.6404 5.88472 32.0032C6.05178 32.1575 6.61837 32.6586 6.73343 32.7655C7.58722 33.5588 7.85483 34.2032 7.85483 36.0687C7.85483 40.4456 8.82879 44.0101 10.7128 45.4065C11.8545 46.2526 12.8108 45.4869 13.7175 43.9797C14.2896 43.0285 14.9058 41.6448 15.5148 39.9933C16.6443 36.9301 17.5763 33.415 17.5763 32.1234C17.5763 30.3226 16.0444 29.5671 13.068 28.9449C12.6243 28.8521 11.2219 28.5882 11.0623 28.5561C10.3879 28.4204 9.98046 28.2987 9.95185 28.2755C9.13439 27.6143 8.78469 26.7965 8.78469 25.0919C8.78469 24.6922 9.19225 24.0179 10.0315 23.1079C10.3219 22.793 10.6412 22.4704 11.1024 22.0201C13.2979 19.8767 13.6197 19.5258 13.9285 18.6203C14.219 17.7684 14.0909 16.9058 13.6627 15.5268C13.6004 15.3279 13.6004 15.3279 13.5382 15.134C13.0948 13.7535 13.0637 13.3969 12.9985 13.4233C12.9938 13.4252 13.0318 13.4548 13.4019 14.0468C13.4824 14.1761 13.4824 14.1761 13.5679 14.3143C14.4232 15.6913 15.0758 16.2988 16.3258 16.1862C17.7891 16.0544 18.5625 15.355 19.8204 13.6144L19.8968 13.5086C20.2673 12.9961 20.4608 12.7464 20.6809 12.5117C22.3437 10.738 23.3681 8.40417 22.4995 6.89418C21.7197 5.53865 18.1426 4.3457 16.2324 4.3457C15.3621 4.3457 14.8236 4.70767 14.2262 5.42658C14.189 5.47136 14.0239 5.67386 13.9805 5.72568C13.6951 6.06694 13.5089 6.21429 13.2413 6.2945C12.9788 6.37322 12.6265 6.42016 12.2113 6.43293C11.7189 6.44807 11.1779 6.41531 10.6416 6.35099C10.3743 6.31894 10.1727 6.28741 10.0671 6.26792L9.04269 6.07893L8.66471 8.12769L9.68909 8.31668C9.83536 8.34366 10.0794 8.38184 10.3935 8.4195C11.0253 8.49526 11.6655 8.53403 12.2753 8.51528C12.8572 8.49738 13.3809 8.4276 13.8396 8.29009C14.5715 8.07066 15.0555 7.68768 15.5786 7.0623C15.6325 6.99776 15.8004 6.79183 15.8284 6.75814C16.0685 6.4692 16.1283 6.42904 16.2324 6.42904C17.4706 6.42904 20.3882 7.40204 20.6936 7.93302C20.9377 8.3572 20.2488 9.92643 19.161 11.0868C18.8614 11.4064 18.6295 11.7056 18.2084 12.2882L18.1319 12.3941C17.2202 13.6556 16.7802 14.0535 16.139 14.1113C15.9853 14.1251 15.7898 13.9431 15.3377 13.2151C15.255 13.0816 15.255 13.0816 15.1684 12.9423C14.3023 11.5572 13.5341 10.9588 12.2166 11.4923C10.6082 12.1435 10.6897 13.078 11.5547 15.7711C11.6151 15.9597 11.6151 15.9597 11.6731 16.1446C11.971 17.1039 12.054 17.6626 11.9567 17.9478C11.8129 18.3696 11.4148 18.8035 9.64701 20.5294C9.16192 21.003 8.82045 21.3481 8.50005 21.6955C7.32462 22.97 6.70135 24.0012 6.70135 25.0919C6.70135 27.3968 7.30865 28.817 8.6416 29.8953C9.04638 30.2227 9.58822 30.3845 10.6513 30.5985C10.8313 30.6347 12.2233 30.8966 12.6417 30.9841C14.5566 31.3844 15.493 31.8462 15.493 32.1234C15.493 33.0922 14.6073 36.4325 13.5601 39.2725C12.9925 40.8119 12.4244 42.0877 11.9322 42.9058C11.8121 43.1056 11.7001 43.2713 11.602 43.3991C10.6023 42.2297 9.93816 39.4551 9.93816 36.0687Z"
        fill="white"></path>
    <path
        d="M28.125 29.166C29.8509 29.166 31.25 27.7669 31.25 26.041C31.25 24.3151 29.8509 22.916 28.125 22.916C26.3991 22.916 25 24.3151 25 26.041C25 27.7669 26.3991 29.166 28.125 29.166Z"
        fill="white"></path>
    <path
        d="M15.625 41.666C17.3509 41.666 18.75 40.2669 18.75 38.541C18.75 36.8151 17.3509 35.416 15.625 35.416C13.8991 35.416 12.5 36.8151 12.5 38.541C12.5 40.2669 13.8991 41.666 15.625 41.666Z"
        fill="white"></path>
    <path
        d="M36.457 16.666C38.1829 16.666 39.582 15.2669 39.582 13.541C39.582 11.8151 38.1829 10.416 36.457 10.416C34.7311 10.416 33.332 11.8151 33.332 13.541C33.332 15.2669 34.7311 16.666 36.457 16.666Z"
        fill="white"></path>
    <path
        d="M38.543 39.584C40.2689 39.584 41.668 38.1849 41.668 36.459C41.668 34.7331 40.2689 33.334 38.543 33.334C36.8171 33.334 35.418 34.7331 35.418 36.459C35.418 38.1849 36.8171 39.584 38.543 39.584Z"
        fill="white"></path>
    <path
        d="M7.29297 20.834C9.01886 20.834 10.418 19.4349 10.418 17.709C10.418 15.9831 9.01886 14.584 7.29297 14.584C5.56708 14.584 4.16797 15.9831 4.16797 17.709C4.16797 19.4349 5.56708 20.834 7.29297 20.834Z"
        fill="white"></path>
</svg>