<svg width="50" height="50" viewBox="0 0 50 50" fill="none" xmlns="http://www.w3.org/2000/svg">
    <path
        d="M40.2412 30.8821L38.2353 31.9729C38.2129 31.927 38.1904 31.8811 38.166 31.8362C37.2851 30.2229 35.2568 29.6262 33.6455 30.5061L30.0752 32.4446L22.6533 30.0588C20.0976 29.2346 17.6035 29.467 15.2392 30.7502L9.05954 34.1096L8.4111 32.9846C8.01364 32.2922 7.12692 32.052 6.43357 32.4504L3.12106 34.3577C2.7861 34.55 2.54587 34.8616 2.44528 35.2356C2.3447 35.6096 2.3945 35.9993 2.58689 36.3342C2.58689 36.3342 2.58786 36.3352 2.58786 36.3362L10.0459 49.2649C10.3134 49.7268 10.8008 49.9856 11.3017 49.9856C11.5468 49.9856 11.7949 49.9241 12.0215 49.7932L15.333 47.886C15.6679 47.6936 15.9072 47.3831 16.0088 47.01C16.1103 46.637 16.0595 46.2473 15.8672 45.9104L15.248 44.8372L15.5136 44.6926C16.8886 43.9465 18.3408 43.8118 19.83 44.2903L23.039 45.3225C23.7842 45.5618 24.5224 45.6819 25.25 45.6819C26.3886 45.6819 27.5029 45.3889 28.5781 44.803L43.4306 36.7327C44.209 36.3079 44.7773 35.6028 45.0302 34.7483C45.2832 33.8918 45.1884 32.9915 44.7636 32.2141C43.8857 30.6028 41.8574 30.0051 40.2412 30.8821ZM34.3916 31.8772C35.248 31.4094 36.3271 31.7268 36.7929 32.5803C36.8174 32.6262 36.8398 32.6731 36.8603 32.72L33.4082 34.5969C33.1104 33.9882 32.6355 33.4837 32.0459 33.1497L34.3916 31.8772ZM11.3388 48.3831L3.99606 35.6545L7.11325 33.8606L14.456 46.5891L11.3388 48.3831ZM43.5312 34.3059C43.3965 34.761 43.0947 35.137 42.6826 35.3616L27.831 43.4309C26.458 44.178 25.0058 44.3147 23.5156 43.8362L20.3066 42.804C18.3955 42.1897 16.5322 42.3635 14.7666 43.3215L14.4668 43.4856L9.83884 35.4631L15.9834 32.1223C17.957 31.051 20.039 30.8567 22.1738 31.5452L30.956 34.3684C31.6074 34.5784 32.084 35.1545 32.1709 35.8372C32.1738 35.8577 32.1777 35.8772 32.1826 35.8967C32.1816 35.9231 32.1806 35.9495 32.1826 35.9768C32.1924 36.1809 32.1631 36.3958 32.1006 36.594C31.7998 37.5237 30.7988 38.0364 29.8681 37.7356C27.3857 36.9387 24.8994 36.1389 22.417 35.3381C22.0068 35.2063 21.5664 35.4309 21.4345 35.842C21.3027 36.2522 21.5283 36.6926 21.9384 36.8245C24.4218 37.6243 26.9082 38.425 29.3896 39.2219C29.7285 39.3313 30.0722 39.3831 30.4111 39.3831C31.8183 39.3831 33.1308 38.4836 33.5879 37.0706C33.6797 36.7825 33.7314 36.4885 33.7431 36.1936L40.9863 32.2551C41.8467 31.7883 42.9258 32.1047 43.3916 32.9622C43.6162 33.3733 43.666 33.8508 43.5312 34.3059ZM46.8144 17.4456L46.082 17.2053C45.9487 16.758 45.7694 16.3256 45.5468 15.9153L45.8925 15.2366C46.124 14.7903 46.04 14.2502 45.6826 13.8928L44.791 13.0012C44.4375 12.6477 43.9004 12.5637 43.4531 12.7903L42.7685 13.1379C42.3582 12.9153 41.9259 12.736 41.4785 12.6028L41.2422 11.8733C41.1882 11.7051 41.0961 11.5517 40.9729 11.4251C40.8497 11.2986 40.6989 11.2023 40.5322 11.1438V7.60083C40.5322 7.32153 40.3838 7.06469 40.1416 6.92505L35.6074 4.30688C35.605 4.3052 35.6024 4.30388 35.5996 4.30298L28.3447 0.112546C28.2261 0.0439383 28.0916 0.0078125 27.9546 0.0078125C27.8176 0.0078125 27.683 0.0439383 27.5644 0.112546L15.7666 6.92505C15.5254 7.06469 15.3759 7.32251 15.3759 7.60083V21.2229C15.3759 21.5022 15.5244 21.76 15.7666 21.8987L27.5644 28.7083C27.6855 28.7776 27.8203 28.8127 27.9551 28.8127C28.0898 28.8127 28.2246 28.7776 28.3457 28.7083L34.2217 25.3176L34.2412 25.3372C34.5957 25.6916 35.1328 25.7776 35.58 25.5491L36.2617 25.2004C36.6748 25.4231 37.1074 25.6028 37.5537 25.7366L37.789 26.4631C37.9424 26.9416 38.3838 27.2629 38.8867 27.2629H40.1465C40.6494 27.2629 41.0898 26.9416 41.2431 26.4661L41.4795 25.7375C41.9272 25.6032 42.3601 25.4236 42.7715 25.2014L43.4541 25.55C43.6709 25.6609 43.9173 25.7001 44.1577 25.6618C44.3982 25.6235 44.6203 25.5099 44.792 25.3372L45.6836 24.4456C46.0381 24.0911 46.123 23.553 45.8965 23.1077L45.5488 22.4241C45.7705 22.0149 45.9492 21.5823 46.083 21.134L46.8183 20.8948C47.0486 20.8187 47.249 20.672 47.391 20.4754C47.5331 20.2789 47.6095 20.0425 47.6093 19.8V18.5374C47.6093 18.0344 47.2861 17.594 46.8144 17.4456ZM38.8867 11.0784C38.3828 11.0784 37.9424 11.3987 37.79 11.8723L37.5527 12.6028C37.1053 12.736 36.673 12.9153 36.2627 13.1379L35.5781 12.7903C35.1308 12.5627 34.5937 12.6467 34.2402 13.0002L33.3486 13.8918C32.9912 14.2493 32.9072 14.7893 33.1357 15.2297L33.4843 15.9143C33.2622 16.3248 33.0829 16.7571 32.9492 17.2043L32.2217 17.4426C31.9895 17.5166 31.7869 17.6626 31.6433 17.8594C31.4997 18.0562 31.4225 18.2937 31.4228 18.5374V19.8C31.4228 20.2942 31.7392 20.7336 32.2099 20.8938L32.2197 20.8967L32.9492 21.1331C33.082 21.5774 33.2617 22.01 33.4843 22.4231L33.1357 23.1077C33.0541 23.268 33.0111 23.4452 33.0102 23.6252C33.0094 23.8051 33.0507 23.9827 33.1308 24.1438L28.7343 26.6809V14.9338C28.7343 14.9104 28.7324 14.887 28.7304 14.8635L38.9707 8.95239V11.0784H38.8867ZM21.4853 10.6829L21.7763 10.5139L32.5088 4.31958L33.6377 4.97094L23.0166 11.1018C22.911 11.163 22.8213 11.2481 22.7545 11.3501C22.6877 11.4522 22.6457 11.5685 22.6318 11.6897C22.6279 11.717 22.6269 11.7454 22.6259 11.7727V15.0286L21.4853 14.3704V10.6829ZM35.1982 5.87329L38.1904 7.60083L27.9541 13.51L24.9609 11.7825L35.1982 5.87329ZM27.9551 1.68969L30.9472 3.41821L20.9931 9.16333L20.7109 9.32739L17.7187 7.60083L27.9551 1.68969ZM16.9375 8.95239L19.9238 10.676V14.8206C19.9238 14.9575 19.9599 15.092 20.0282 15.2106C20.0966 15.3292 20.195 15.4277 20.3134 15.4963L23.0156 17.0579C23.1367 17.1272 23.2715 17.1624 23.4062 17.1624C23.541 17.1624 23.6758 17.1272 23.7968 17.0579C24.0381 16.9182 24.1875 16.6604 24.1875 16.3821V13.1389L27.1777 14.8645C27.1758 14.8879 27.1738 14.9114 27.1738 14.9348V26.6819L16.9375 20.7737V8.95239ZM46.0478 19.5041L45.3974 19.7161C45.0215 19.8352 44.7363 20.134 44.6338 20.5188C44.5138 20.9774 44.3321 21.4176 44.0937 21.8274C43.8916 22.1643 43.8759 22.5784 44.0566 22.9377L44.3701 23.553L43.8974 24.0256L43.2793 23.7102C42.9277 23.5344 42.5166 23.5481 42.1816 23.7444C41.7646 23.9856 41.3222 24.1692 40.8662 24.2903C40.4824 24.3909 40.1894 24.6653 40.0625 25.0481L39.8496 25.7043H39.1836L38.9687 25.0422C38.8427 24.6643 38.5498 24.3909 38.167 24.2913C37.7068 24.1689 37.2651 23.9856 36.8535 23.7463C36.5156 23.5481 36.1035 23.5354 35.747 23.7141L35.1357 24.0266L34.6631 23.554L34.9795 22.9329C35.1552 22.5803 35.1416 22.1711 34.9433 21.8352C34.7036 21.4224 34.5204 20.9793 34.3984 20.5178C34.2968 20.136 34.0117 19.8372 33.6416 19.719L32.9853 19.5061V18.8391L33.6377 18.6252C34.0127 18.5061 34.2968 18.2063 34.3994 17.8225C34.5205 17.3635 34.7031 16.9221 34.9443 16.509C35.1416 16.1711 35.1552 15.76 34.9765 15.4036L34.6631 14.7883L35.1338 14.3176L35.7451 14.6282C36.0898 14.8059 36.499 14.7981 36.8408 14.6067C36.8447 14.6047 36.8496 14.6018 36.8535 14.5999C37.2675 14.3567 37.709 14.1741 38.164 14.0559C38.5429 13.9573 38.8427 13.675 38.9697 13.2952L39.1816 12.6418H39.8496L40.0634 13.301C40.1884 13.675 40.4883 13.9573 40.8681 14.0569C41.3222 14.175 41.7636 14.3577 42.1777 14.6008C42.1816 14.6028 42.1865 14.6057 42.1904 14.6077C42.5322 14.7991 42.9414 14.8079 43.2861 14.6291L43.8974 14.3186L44.3681 14.7893L44.0517 15.4094C43.8759 15.761 43.8896 16.1721 44.0888 16.512C44.3271 16.9153 44.5097 17.3567 44.6328 17.8254C44.7343 18.2073 45.0185 18.5051 45.3945 18.6252L46.0459 18.8391V19.5041H46.0478ZM39.5175 15.1331C37.291 15.1331 35.4785 16.9436 35.4785 19.1692C35.4785 21.3948 37.29 23.2053 39.5175 23.2053C41.7431 23.2053 43.5537 21.3948 43.5537 19.1692C43.5537 16.9436 41.7431 15.1331 39.5175 15.1331ZM39.5175 21.6448C38.1513 21.6448 37.04 20.5344 37.04 19.1702C37.04 17.8059 38.1513 16.6956 39.5175 16.6956C40.8818 16.6956 41.9922 17.8059 41.9922 19.1702C41.9922 20.5344 40.8818 21.6448 39.5175 21.6448Z"
        fill="white" />
</svg>