<svg width="50" height="50" viewBox="0 0 50 50" fill="none" xmlns="http://www.w3.org/2000/svg">
    <path
        d="M22.6646 33.4325L27.687 29.2473C28.3439 28.7019 29.1318 28.3378 29.9728 28.1908C30.8138 28.0439 31.6786 28.1193 32.4814 28.4096L37.7563 30.3276C38.013 30.4211 38.2841 30.4689 38.5572 30.4688H48.4383V28.9062H38.5572C38.4662 28.9063 38.3759 28.8904 38.2903 28.8592L33.0154 26.941C32.2008 26.6456 31.3348 26.5179 30.4695 26.5657V26.5625H21.3481C21.0962 26.5624 20.8459 26.603 20.6069 26.6828L14.0571 28.866C13.9776 28.8926 13.8942 28.9061 13.8104 28.9061H13.8097L1.56387 28.8967L1.5627 30.4592L13.8085 30.4686H13.8104C14.0623 30.4686 14.3125 30.428 14.5514 30.3482L21.1012 28.165C21.1808 28.1385 21.2642 28.125 21.3481 28.125H26.593L21.6645 32.2321C21.0569 32.7384 20.6754 33.4653 20.6037 34.2529C20.5321 35.0405 20.7763 35.8242 21.2826 36.4318C21.7888 37.0393 22.5157 37.4209 23.3033 37.4925C24.0909 37.5641 24.8747 37.3199 25.4822 36.8137L28.0778 34.6507L34.9952 41.5681C35.0766 41.6494 35.1411 41.746 35.1851 41.8523C35.2291 41.9585 35.2518 42.0725 35.2518 42.1875C35.2518 42.3025 35.2291 42.4165 35.1851 42.5227C35.1411 42.629 35.0766 42.7256 34.9952 42.8069C34.9139 42.8883 34.8173 42.9528 34.711 42.9968C34.6047 43.0409 34.4908 43.0635 34.3758 43.0635C34.2607 43.0635 34.1468 43.0409 34.0405 42.9968C33.9343 42.9528 33.8377 42.8883 33.7563 42.8069L32.9751 42.0257L27.897 36.9476L26.7921 38.0524L31.8702 43.1306C32.0345 43.2949 32.1268 43.5177 32.1268 43.75C32.1268 43.9823 32.0345 44.2051 31.8702 44.3694C31.7059 44.5337 31.4831 44.626 31.2508 44.626C31.0184 44.626 30.7956 44.5337 30.6313 44.3694L29.8501 43.5882L26.3345 40.0726L25.2296 41.1774L28.7452 44.6931C28.8266 44.7744 28.8911 44.871 28.9351 44.9773C28.9791 45.0835 29.0018 45.1975 29.0018 45.3125C29.0018 45.4275 28.9791 45.5415 28.9351 45.6477C28.8911 45.754 28.8266 45.8506 28.7452 45.9319C28.6639 46.0133 28.5673 46.0778 28.461 46.1218C28.3547 46.1659 28.2408 46.1885 28.1258 46.1885C28.0107 46.1885 27.8968 46.1659 27.7905 46.1218C27.6843 46.0778 27.5877 46.0133 27.5063 45.9319L25.9438 44.3694L25.0822 43.5079C25.0244 42.9218 24.7561 42.3764 24.327 41.973C23.8979 41.5695 23.337 41.3353 22.7484 41.3137C22.7259 40.6993 22.4718 40.1161 22.037 39.6814C21.6023 39.2466 21.0191 38.9924 20.4047 38.9699C20.3901 38.589 20.2864 38.2168 20.102 37.8832C19.9175 37.5495 19.6575 37.2638 19.3426 37.0488C19.0278 36.8338 18.667 36.6957 18.2891 36.6453C17.9112 36.595 17.5268 36.6339 17.1667 36.759C17.0397 36.3604 16.8123 36.0013 16.5064 35.7161C16.2004 35.4308 15.8262 35.2291 15.4197 35.1304C15.0133 35.0316 14.5883 35.0391 14.1855 35.1521C13.7828 35.2651 13.4159 35.4799 13.1202 35.7757L11.5577 37.3382C11.3312 37.5644 11.1517 37.8331 11.0293 38.1288C10.9069 38.4246 10.8442 38.7416 10.8446 39.0617L1.56406 39.0529L1.5625 40.6154L11.4102 40.6247C11.4566 40.6804 11.5055 40.7346 11.5576 40.7868C11.9917 41.2231 12.5756 41.4776 13.1906 41.4987C13.2131 42.1131 13.4673 42.6963 13.9021 43.131C14.3368 43.5658 14.92 43.82 15.5344 43.8425C15.549 44.2234 15.6527 44.5956 15.8371 44.9292C16.0215 45.2629 16.2816 45.5486 16.5964 45.7636C16.9113 45.9786 17.2721 46.1168 17.65 46.1671C18.0278 46.2174 18.4122 46.1785 18.7724 46.0534C18.8791 46.3879 19.0567 46.6954 19.2932 46.9549C19.5297 47.2144 19.8194 47.4198 20.1426 47.557C20.4657 47.6942 20.8147 47.7601 21.1656 47.75C21.5166 47.7399 21.8612 47.6542 22.176 47.4987L22.4952 47.8181C22.7751 48.0983 23.119 48.306 23.4972 48.4234C23.8754 48.5407 24.2766 48.5642 24.6659 48.4916C25.0552 48.4191 25.421 48.2528 25.7316 48.0071C26.0421 47.7614 26.2882 47.4437 26.4483 47.0815C26.7476 47.3659 27.1143 47.5695 27.5139 47.6733C27.9135 47.7771 28.3329 47.7777 28.7328 47.6749C29.1326 47.5721 29.4998 47.3694 29.7998 47.0858C30.0998 46.8022 30.3229 46.447 30.4479 46.0535C30.7555 46.1608 31.0814 46.2053 31.4065 46.1844C31.7315 46.1636 32.0491 46.0778 32.3404 45.9321C32.6317 45.7865 32.8909 45.5839 33.1026 45.3364C33.3143 45.0889 33.4742 44.8014 33.5729 44.491C34.0042 44.6412 34.4689 44.6673 34.9142 44.5664C35.3595 44.4655 35.7676 44.2415 36.0919 43.9201C36.4162 43.5986 36.6437 43.1925 36.7486 42.7481C36.8534 42.3037 36.8314 41.8388 36.685 41.4062H38.1123C38.8873 41.4071 39.645 41.1765 40.2882 40.7441L41.4472 39.9667C41.5759 39.8802 41.7274 39.8341 41.8825 39.8342H48.4383V38.2717H41.8826C41.4176 38.2712 40.9629 38.4095 40.577 38.6689L39.4178 39.4465C39.0319 39.7059 38.5773 39.8442 38.1123 39.8438H35.4807L31.4571 35.8203C32.8105 35.8592 34.1336 35.4153 35.1897 34.5681L35.645 34.2038L34.669 32.9837L34.2138 33.3479C33.4154 33.9879 32.4089 34.3105 31.3873 34.2539C30.3657 34.1973 29.401 33.7655 28.6782 33.0413L28.1737 32.5368L24.4819 35.6133C24.3387 35.7326 24.1735 35.8226 23.9955 35.878C23.8175 35.9334 23.6304 35.9533 23.4448 35.9364C23.2592 35.9195 23.0787 35.8663 22.9136 35.7796C22.7486 35.693 22.6022 35.5747 22.4829 35.4315C22.3636 35.2884 22.2736 35.1231 22.2182 34.9451C22.1627 34.7672 22.1429 34.58 22.1598 34.3944C22.1766 34.2088 22.2299 34.0283 22.3165 33.8632C22.4032 33.6982 22.5215 33.5518 22.6646 33.4325ZM13.282 39.9385C13.1088 39.9385 12.9394 39.8871 12.7953 39.7909C12.6512 39.6946 12.5389 39.5578 12.4726 39.3977C12.4063 39.2376 12.3889 39.0615 12.4228 38.8915C12.4566 38.7216 12.54 38.5655 12.6626 38.443L14.2251 36.8805C14.3894 36.7162 14.6122 36.6239 14.8445 36.6239C15.0769 36.6239 15.2997 36.7162 15.464 36.8805C15.6282 37.0448 15.7205 37.2676 15.7205 37.4999C15.7205 37.7322 15.6282 37.9551 15.464 38.1193L13.9015 39.6818C13.8203 39.7635 13.7238 39.8282 13.6175 39.8722C13.5111 39.9163 13.3971 39.9388 13.282 39.9385ZM15.6258 42.2822C15.4525 42.2823 15.2831 42.2309 15.139 42.1346C14.9949 42.0384 14.8826 41.9016 14.8163 41.7415C14.75 41.5814 14.7327 41.4052 14.7665 41.2353C14.8003 41.0653 14.8838 40.9092 15.0063 40.7867L16.5688 39.2242L17.3501 38.443C17.5144 38.2787 17.7372 38.1864 17.9695 38.1864C18.2019 38.1864 18.4247 38.2787 18.589 38.443C18.7532 38.6073 18.8455 38.8301 18.8455 39.0624C18.8455 39.2947 18.7532 39.5176 18.589 39.6818L16.2452 42.0256C16.1641 42.1072 16.0675 42.1719 15.9612 42.216C15.8549 42.26 15.7409 42.2825 15.6258 42.2822ZM18.589 44.3693C18.4247 44.5336 18.2019 44.6259 17.9695 44.6259C17.7372 44.6259 17.5144 44.5336 17.3501 44.3693C17.1858 44.2051 17.0935 43.9822 17.0935 43.7499C17.0935 43.5176 17.1858 43.2948 17.3501 43.1305L19.6938 40.7867C19.8581 40.6224 20.0809 40.5301 20.3133 40.5301C20.5456 40.5301 20.7684 40.6224 20.9327 40.7867C21.097 40.951 21.1893 41.1738 21.1893 41.4062C21.1893 41.6385 21.097 41.8613 20.9327 42.0256L19.3702 43.5881L18.589 44.3693ZM21.714 45.9318C21.5497 46.0961 21.3269 46.1884 21.0945 46.1884C20.8622 46.1884 20.6394 46.0961 20.4751 45.9318C20.3108 45.7676 20.2185 45.5447 20.2185 45.3124C20.2185 45.0801 20.3108 44.8573 20.4751 44.693L22.0376 43.1305C22.2019 42.9662 22.4247 42.8739 22.657 42.8739C22.8894 42.8739 23.1122 42.9662 23.2765 43.1305C23.4407 43.2948 23.533 43.5176 23.533 43.7499C23.533 43.9822 23.4407 44.2051 23.2765 44.3693L21.714 45.9318ZM24.839 46.7131C24.7576 46.7944 24.6611 46.859 24.5548 46.903C24.4485 46.947 24.3346 46.9697 24.2195 46.9697C24.1045 46.9697 23.9906 46.947 23.8843 46.903C23.778 46.859 23.6814 46.7944 23.6001 46.7131L23.3713 46.4844L24.3813 45.4743C24.4577 45.3976 24.529 45.316 24.5945 45.2299L24.839 45.4743C25.003 45.6387 25.0952 45.8615 25.0952 46.0938C25.0952 46.326 25.003 46.5487 24.839 46.7131ZM40.6258 23.4375H39.0633V11.2359L29.6883 6.54844V10.4547L21.8758 6.54844V10.9375H15.6258V6.25H10.9383V23.4375H9.37578V25H40.6258V23.4375ZM14.0633 23.4375H12.5008V10.9375H14.0633V23.4375ZM14.0633 9.375H12.5008V7.8125H14.0633V9.375ZM21.8758 23.4375H15.6258V12.5H21.8758V23.4375ZM29.6883 23.4375H23.4383V9.07656L29.6883 12.2016V23.4375ZM37.5008 23.4375H31.2508V9.07656L37.5008 12.2016V23.4375Z"
        fill="white" />
    <path
        d="M17.1875 14.0625H20.3125V15.625H17.1875V14.0625ZM17.1875 17.1875H20.3125V18.75H17.1875V17.1875ZM17.1875 20.3125H20.3125V21.875H17.1875V20.3125ZM32.8125 12.5H35.9375V14.0625H32.8125V12.5ZM32.8125 16.4062H35.9375V17.9688H32.8125V16.4062ZM32.8125 20.3125H35.9375V21.875H32.8125V20.3125ZM25 12.5H28.125V14.0625H25V12.5ZM25 16.4062H28.125V17.9688H25V16.4062ZM25 20.3125H28.125V21.875H25V20.3125ZM14.0625 3.90625C14.0616 3.70029 14.1424 3.50238 14.2872 3.35592C14.432 3.20947 14.629 3.12642 14.835 3.125H15.6117C16.1698 3.125 16.4094 3.34268 16.8064 3.70322C17.2636 4.11865 17.8896 4.6875 19.0516 4.6875C20.2134 4.6875 20.8396 4.11865 21.2969 3.70322C21.6939 3.34277 21.9336 3.125 22.4916 3.125C23.0496 3.125 23.2895 3.34268 23.6865 3.70332C24.1436 4.11865 24.77 4.6875 25.9318 4.6875C27.0937 4.6875 27.7201 4.11865 28.1773 3.70322C28.5744 3.34268 28.8141 3.125 29.3722 3.125C29.9303 3.125 30.17 3.34268 30.5671 3.70332C31.0243 4.11865 31.6506 4.6875 32.8125 4.6875V3.125C32.2543 3.125 32.0146 2.90732 31.6177 2.54668C31.1604 2.13135 30.5342 1.5625 29.3721 1.5625C28.2103 1.5625 27.584 2.13135 27.1267 2.54668C26.7297 2.90732 26.4899 3.125 25.9317 3.125C25.3735 3.125 25.134 2.90732 24.737 2.54678C24.2799 2.13135 23.6536 1.5625 22.4916 1.5625C21.3298 1.5625 20.7035 2.13135 20.2463 2.54678C19.8493 2.90723 19.6098 3.125 19.0516 3.125C18.4936 3.125 18.2539 2.90732 17.857 2.54687C17.3998 2.13125 16.7736 1.5625 15.6117 1.5625H14.835C14.2147 1.56436 13.6206 1.81217 13.1828 2.25156C12.7451 2.69094 12.4995 3.28603 12.5 3.90625V4.6875H14.0625V3.90625Z"
        fill="white" />
</svg>