<svg width="25" height="25" viewBox="0 0 25 25" fill="none" xmlns="http://www.w3.org/2000/svg">
<g clip-path="url(#clip0_3515_3272)">
<path d="M8.02793 19.9762C7.9597 19.9391 7.8795 19.9306 7.80498 19.9525C7.73047 19.9745 7.66773 20.0252 7.63057 20.0934L6.46582 22.235C6.4287 22.3033 6.4202 22.3835 6.44222 22.458C6.46423 22.5325 6.51495 22.5953 6.58321 22.6324C6.65147 22.6695 6.73168 22.678 6.8062 22.656C6.88072 22.634 6.94344 22.5833 6.98057 22.515L8.14532 20.3734C8.18239 20.3052 8.19084 20.225 8.16883 20.1505C8.14682 20.076 8.09614 20.0134 8.02793 19.9762ZM8.75425 18.6408C8.68602 18.6037 8.60582 18.5952 8.5313 18.6171C8.45678 18.6391 8.39405 18.6898 8.35689 18.758L8.18633 19.0716C8.16795 19.1054 8.15641 19.1425 8.15236 19.1807C8.14831 19.219 8.15184 19.2577 8.16274 19.2946C8.17365 19.3315 8.19171 19.3659 8.2159 19.3958C8.24009 19.4257 8.26994 19.4505 8.30374 19.4689C8.33754 19.4873 8.37463 19.4989 8.41289 19.5029C8.45115 19.5069 8.48983 19.5034 8.52672 19.4925C8.56362 19.4816 8.59801 19.4636 8.62792 19.4394C8.65784 19.4152 8.6827 19.3853 8.70108 19.3515L8.87163 19.0379C8.90869 18.9697 8.91714 18.8896 8.89513 18.8151C8.87312 18.7406 8.82245 18.678 8.75425 18.6408ZM11.859 11.4957C12.0683 11.496 12.2692 11.4133 12.4176 11.2658C12.566 11.1183 12.6499 10.9179 12.6508 10.7086C12.6511 10.6049 12.6307 10.5021 12.5908 10.4063C12.5509 10.3105 12.4923 10.2236 12.4184 10.1507C12.3449 10.0775 12.2577 10.0195 12.1619 9.98003C12.066 9.94054 11.9632 9.92035 11.8595 9.92061H11.859C11.6498 9.9203 11.4489 10.003 11.3005 10.1505C11.1521 10.298 11.0683 10.4984 11.0673 10.7076C11.067 10.8114 11.0874 10.9142 11.1273 11.01C11.1672 11.1058 11.2258 11.1927 11.2998 11.2655C11.3732 11.3388 11.4604 11.3968 11.5563 11.4363C11.6521 11.4758 11.7549 11.4959 11.8586 11.4957H11.859ZM11.6533 10.708C11.6539 10.654 11.6759 10.6025 11.7145 10.5647C11.7531 10.527 11.8051 10.5061 11.859 10.5065C11.8862 10.5064 11.9131 10.5117 11.9383 10.5219C11.9634 10.5322 11.9863 10.5474 12.0055 10.5666C12.0243 10.585 12.0393 10.6071 12.0495 10.6314C12.0596 10.6557 12.0649 10.6818 12.0648 10.7082C12.0642 10.7621 12.0422 10.8137 12.0036 10.8514C11.965 10.8892 11.913 10.9101 11.859 10.9096C11.8319 10.9098 11.8049 10.9045 11.7798 10.8942C11.7547 10.8839 11.7318 10.8688 11.7126 10.8496C11.6937 10.8311 11.6788 10.8091 11.6686 10.7847C11.6584 10.7604 11.6532 10.7343 11.6533 10.7079V10.708ZM12.1874 14.5443H12.188C12.3192 14.5448 12.4491 14.5193 12.5704 14.4695C12.6917 14.4197 12.802 14.3465 12.895 14.2541C12.9885 14.1621 13.0627 14.0524 13.1133 13.9314C13.1639 13.8104 13.1899 13.6805 13.1897 13.5493C13.1887 13.2846 13.0827 13.0311 12.8951 12.8444C12.7074 12.6576 12.4534 12.5529 12.1887 12.5532H12.188C11.9234 12.5527 11.6694 12.6572 11.4816 12.8437C11.2939 13.0302 11.1877 13.2835 11.1864 13.5481C11.186 13.6793 11.2118 13.8092 11.2622 13.9303C11.3127 14.0513 11.3868 14.1611 11.4802 14.2532C11.5731 14.3458 11.6834 14.4192 11.8048 14.4692C11.9261 14.5191 12.0561 14.5447 12.1874 14.5443ZM12.188 13.139C12.2974 13.1384 12.4027 13.1812 12.4806 13.2581C12.5585 13.335 12.6027 13.4397 12.6035 13.5491C12.6035 13.6029 12.5928 13.6561 12.572 13.7057C12.5513 13.7553 12.5208 13.8002 12.4824 13.8379C12.4437 13.8764 12.3977 13.9069 12.3471 13.9276C12.2966 13.9483 12.2424 13.9588 12.1878 13.9586H12.1874C12.1327 13.9588 12.0785 13.9482 12.0279 13.9274C11.9773 13.9067 11.9313 13.8761 11.8926 13.8376C11.8543 13.7999 11.8239 13.7549 11.8031 13.7053C11.7824 13.6557 11.7718 13.6024 11.7719 13.5487C11.7729 13.4392 11.8172 13.3346 11.8951 13.2578C11.9731 13.181 12.0784 13.1383 12.1878 13.139H12.188ZM12.214 2.98834H12.2148C12.3664 2.98885 12.5166 2.95949 12.6568 2.90194C12.7971 2.84438 12.9246 2.75975 13.0321 2.65289C13.1399 2.54644 13.2255 2.41968 13.2839 2.27992C13.3424 2.14017 13.3725 1.99021 13.3726 1.83872C13.3727 1.68724 13.3428 1.53724 13.2845 1.39741C13.2262 1.25758 13.1408 1.13071 13.0331 1.02413C12.9257 0.917023 12.7981 0.832161 12.6578 0.7744C12.5176 0.716638 12.3672 0.68711 12.2155 0.687506H12.2147C12.0632 0.687017 11.913 0.716404 11.7727 0.773988C11.6325 0.831571 11.505 0.916221 11.3975 1.0231C11.2897 1.12955 11.2041 1.25633 11.1457 1.39608C11.0872 1.53584 11.0571 1.6858 11.057 1.83729C11.0569 1.98878 11.0869 2.13878 11.1451 2.27861C11.2034 2.41844 11.2888 2.54532 11.3965 2.65191C11.504 2.75896 11.6315 2.84377 11.7718 2.90149C11.912 2.95922 12.0623 2.98873 12.214 2.98834ZM11.8097 1.43926C11.863 1.38635 11.9262 1.34445 11.9957 1.31596C12.0652 1.28747 12.1396 1.27296 12.2147 1.27325H12.2151C12.2903 1.27299 12.3648 1.28756 12.4343 1.31612C12.5038 1.34468 12.5671 1.38668 12.6204 1.4397C12.6732 1.49172 12.7151 1.55375 12.7437 1.62216C12.7723 1.69058 12.7869 1.764 12.7867 1.83814C12.7868 1.91228 12.7721 1.98569 12.7434 2.05407C12.7148 2.12246 12.6728 2.18444 12.6199 2.23638C12.5666 2.28929 12.5034 2.33119 12.4339 2.35968C12.3644 2.38816 12.29 2.40268 12.2149 2.4024H12.2145C12.1393 2.40265 12.0648 2.38808 11.9953 2.35951C11.9257 2.33093 11.8625 2.28893 11.8092 2.23589C11.7565 2.18382 11.7146 2.12178 11.6861 2.05338C11.6575 1.98498 11.6428 1.91159 11.6429 1.83747C11.6429 1.76335 11.6577 1.68997 11.6863 1.62161C11.715 1.55325 11.757 1.49127 11.8098 1.43926H11.8097ZM2.18247 6.66797C2.41804 6.82181 2.70472 6.87667 2.98044 6.82065C3.25616 6.76464 3.49871 6.60227 3.65557 6.36871C3.73276 6.25277 3.7862 6.12269 3.8128 5.98597C3.83941 5.84926 3.83865 5.70863 3.81057 5.57221C3.78249 5.43579 3.72765 5.30629 3.64922 5.19119C3.57078 5.0761 3.47031 4.97769 3.35362 4.90167C3.11803 4.74793 2.83138 4.69316 2.5557 4.7492C2.28003 4.80525 2.03752 4.96761 1.88067 5.20113C1.80348 5.31704 1.75004 5.4471 1.72343 5.58379C1.69682 5.72049 1.69757 5.8611 1.72564 5.9975C1.7537 6.1339 1.80852 6.26338 1.88694 6.37847C1.96535 6.49355 2.0658 6.59195 2.18247 6.66797ZM2.36802 5.52569C2.43891 5.4206 2.54831 5.34762 2.67257 5.32253C2.79683 5.29744 2.92597 5.32225 3.03208 5.39161C3.08435 5.42549 3.12934 5.46945 3.16443 5.52092C3.19952 5.57238 3.22399 5.63033 3.23643 5.69136C3.2489 5.75174 3.24922 5.81399 3.23736 5.87449C3.22549 5.93499 3.20169 5.99252 3.16734 6.04371C3.09646 6.14881 2.98705 6.22179 2.86279 6.24688C2.73852 6.27196 2.60938 6.24712 2.50328 6.17774C2.45101 6.14386 2.40602 6.09991 2.37094 6.04845C2.33585 5.997 2.31137 5.93906 2.29893 5.87803C2.2865 5.81764 2.28624 5.75537 2.29817 5.69487C2.31009 5.63437 2.33395 5.57686 2.36836 5.52569H2.36802ZM0.966947 15.0361C1.20252 15.1899 1.4892 15.2447 1.76489 15.1887C2.04057 15.1326 2.28308 14.9702 2.4399 14.7366C2.51709 14.6207 2.57053 14.4906 2.59714 14.3539C2.62374 14.2172 2.62298 14.0765 2.5949 13.9401C2.56681 13.8037 2.51197 13.6742 2.43352 13.5591C2.35508 13.444 2.2546 13.3456 2.13789 13.2696C1.9023 13.1159 1.61564 13.0611 1.33997 13.1172C1.06431 13.1732 0.821799 13.3356 0.664945 13.5691C0.587747 13.685 0.534298 13.8151 0.507689 13.9518C0.48108 14.0886 0.48184 14.2292 0.509924 14.3656C0.538007 14.502 0.592858 14.6315 0.671304 14.7466C0.74975 14.8617 0.850235 14.9601 0.966947 15.0361ZM1.15249 13.8939C1.22338 13.7887 1.33278 13.7158 1.45704 13.6907C1.58131 13.6656 1.71046 13.6904 1.81656 13.7598C1.86885 13.7937 1.91386 13.8376 1.94894 13.8891C1.98403 13.9406 2.0085 13.9985 2.0209 14.0596C2.0334 14.1199 2.03372 14.1822 2.02186 14.2427C2.01 14.3032 1.98618 14.3607 1.95181 14.4119C1.88093 14.517 1.77153 14.59 1.64726 14.615C1.52299 14.6401 1.39385 14.6153 1.28775 14.5459C1.23574 14.5122 1.19093 14.4686 1.15593 14.4175C1.12093 14.3664 1.09642 14.3088 1.08384 14.2481C1.07126 14.1875 1.07085 14.1249 1.08263 14.0641C1.09442 14.0033 1.11816 13.9454 1.15249 13.8939Z" fill="#B9E060"/>
<path d="M24.2994 4.28593C24.2624 4.27524 24.2237 4.27194 24.1855 4.27622C24.1472 4.2805 24.1102 4.29227 24.0765 4.31086C24.0428 4.32945 24.0131 4.3545 23.9891 4.38457C23.9651 4.41464 23.9472 4.44915 23.9365 4.48613C23.4002 6.33998 21.7585 6.91547 19.9876 7.47719C18.7871 6.07094 17.7037 4.72089 18.2395 2.8684C18.2505 2.83136 18.254 2.79251 18.2499 2.7541C18.2458 2.71568 18.2342 2.67846 18.2157 2.64456C18.1971 2.61067 18.1721 2.58078 18.1419 2.55661C18.1118 2.53244 18.0772 2.51447 18.04 2.50373C18.0029 2.49299 17.9641 2.4897 17.9257 2.49405C17.8873 2.49839 17.8501 2.51028 17.8164 2.52904C17.7826 2.5478 17.7529 2.57305 17.7289 2.60335C17.7049 2.63364 17.6872 2.66838 17.6767 2.70556C17.0816 4.76254 18.1866 6.25727 19.3819 7.66962C17.6137 8.23852 15.8775 8.9245 15.2824 10.9812C14.6873 13.0379 15.7923 14.5329 16.9877 15.9453C16.5512 16.0858 16.1131 16.2351 15.6957 16.4098C14.8556 14.4348 14.252 12.3674 13.8975 10.2507C13.8911 10.2127 13.8773 10.1764 13.8569 10.1437C13.8365 10.1111 13.8099 10.0828 13.7785 10.0604C13.7472 10.0381 13.7117 10.0221 13.6742 10.0135C13.6367 10.0048 13.5978 10.0036 13.5599 10.01C13.5219 10.0164 13.4856 10.0301 13.4529 10.0506C13.4203 10.071 13.392 10.0976 13.3696 10.129C13.3473 10.1603 13.3313 10.1957 13.3227 10.2333C13.314 10.2708 13.3128 10.3096 13.3192 10.3476C13.6384 12.2518 14.155 14.1176 14.8606 15.9148C13.7545 16.0414 12.9943 15.6781 12.257 15.3256C11.3907 14.9115 10.4986 14.4853 9.16784 14.8971C10.193 11.9698 10.7194 8.89114 10.7249 5.78954C10.7256 5.74859 10.7181 5.70791 10.7027 5.66991C10.6805 5.61646 10.6429 5.57078 10.5947 5.53863C10.5466 5.50649 10.49 5.48931 10.432 5.48925C10.367 5.48946 10.3026 5.47685 10.2424 5.45214C10.1822 5.42742 10.1275 5.39108 10.0814 5.34521C10.0357 5.30026 9.99951 5.24665 9.97482 5.18752C9.95013 5.1284 9.93748 5.06494 9.93761 5.00087C9.93873 4.87065 9.99144 4.74618 10.0842 4.65474C10.1769 4.5633 10.3021 4.51236 10.4323 4.51308H10.4327L13.2335 4.51479C13.2986 4.51458 13.363 4.5272 13.4232 4.55193C13.4833 4.57665 13.538 4.613 13.5841 4.65888C13.6298 4.70381 13.6661 4.75741 13.6908 4.81653C13.7154 4.87565 13.7281 4.9391 13.7279 5.00317C13.7268 5.13341 13.6741 5.25789 13.5814 5.34933C13.4886 5.44078 13.3634 5.49172 13.2332 5.49101H13.2327C13.1552 5.49085 13.0809 5.52142 13.026 5.57601C12.9711 5.63059 12.94 5.70474 12.9397 5.78217C12.9392 6.48266 12.9657 7.18191 13.0193 7.87992C13.0263 7.95647 13.0632 8.02718 13.1219 8.07679C13.1806 8.1264 13.2565 8.15094 13.3332 8.14512C13.4098 8.13931 13.4811 8.10359 13.5317 8.04569C13.5822 7.98778 13.608 7.91233 13.6034 7.83559C13.5579 7.23735 13.5323 6.6377 13.5267 6.03666C13.7524 5.97356 13.9514 5.83854 14.0935 5.6521C14.2355 5.46565 14.3129 5.23795 14.3138 5.00356C14.3142 4.86207 14.2864 4.72192 14.232 4.59131C14.1776 4.4607 14.0977 4.34225 13.9969 4.24291C13.8966 4.14296 13.7776 4.06377 13.6467 4.00987C13.5157 3.95596 13.3755 3.9284 13.2339 3.92875L10.433 3.92704H10.4323C10.1722 3.92529 9.92026 4.01808 9.7234 4.18816C9.52654 4.35824 9.39815 4.59403 9.36212 4.85167C9.32608 5.10932 9.38484 5.37128 9.52748 5.58885C9.67012 5.80642 9.88692 5.96477 10.1376 6.03447C10.1267 7.06936 10.0562 8.10277 9.92623 9.12953C9.40561 8.86856 8.82028 8.76476 8.24166 8.8308L7.68156 6.00073C7.98499 5.88059 8.24452 5.6707 8.42545 5.39911C8.54248 5.22335 8.62349 5.02613 8.66381 4.81886C8.70413 4.61159 8.70295 4.39838 8.66035 4.19157C8.61774 3.98475 8.53455 3.78844 8.41559 3.61398C8.29663 3.43952 8.14426 3.29038 7.9673 3.17519C7.60965 2.94175 7.17445 2.85855 6.75591 2.94359C6.33737 3.02863 5.96916 3.27508 5.73097 3.62958C5.61393 3.80533 5.5329 4.00254 5.49257 4.20981C5.45224 4.41708 5.45342 4.63028 5.49602 4.8371C5.53863 5.04391 5.62183 5.24021 5.74079 5.41466C5.85976 5.58911 6.01215 5.73824 6.18912 5.85341C6.45242 6.02612 6.76052 6.11798 7.0754 6.11767C7.086 6.11767 7.09655 6.11689 7.10714 6.11669L7.66828 8.95278C7.21439 9.09471 6.80117 9.34343 6.46328 9.67808C6.12539 10.0127 5.87269 10.4235 5.72638 10.876L4.63751 10.6015C4.65498 10.319 4.59725 10.037 4.4702 9.78414C4.34315 9.53129 4.15132 9.31665 3.91427 9.1621C3.55666 8.92861 3.12149 8.84535 2.70294 8.93034C2.2844 9.01532 1.91616 9.26173 1.67794 9.6162C1.5609 9.79196 1.47988 9.98918 1.43955 10.1965C1.39923 10.4037 1.4004 10.6169 1.44301 10.8238C1.48561 11.0306 1.56881 11.2269 1.68777 11.4013C1.80674 11.5758 1.95912 11.7249 2.1361 11.8401C2.33038 11.9681 2.55 12.0527 2.77997 12.0881C3.00993 12.1235 3.24483 12.1089 3.46861 12.0452C3.6924 11.9815 3.89981 11.8703 4.07669 11.7191C4.25357 11.568 4.39575 11.3804 4.49352 11.1693L5.6028 11.449C5.54683 11.9509 5.62025 12.4588 5.81607 12.9243C6.01188 13.3899 6.32358 13.7976 6.7215 14.1086L6.29249 14.7374C5.94329 14.5826 5.5507 14.5558 5.18368 14.6617C4.81667 14.7676 4.49871 14.9994 4.28566 15.3164C4.16862 15.4922 4.08759 15.6894 4.04726 15.8967C4.00693 16.1039 4.0081 16.3172 4.05071 16.524C4.09332 16.7308 4.17651 16.9271 4.29548 17.1015C4.41445 17.276 4.56683 17.4251 4.74381 17.5403C5.1014 17.7738 5.5366 17.8572 5.95517 17.7722C6.37373 17.6872 6.74197 17.4407 6.98014 17.0862C7.18525 16.7783 7.27708 16.4087 7.23994 16.0407C7.2028 15.6726 7.039 15.3288 6.77653 15.0681L7.21598 14.4242C7.63688 14.6383 8.10242 14.7498 8.57462 14.7497C8.58278 14.7497 8.59098 14.7493 8.59904 14.7492C8.1211 16.1093 7.53518 17.429 6.84689 18.6958L4.92306 22.2335C4.80667 22.445 4.74782 22.6834 4.75241 22.9248C4.75699 23.1662 4.82484 23.4022 4.94918 23.6092C5.07335 23.8199 5.25063 23.9943 5.46331 24.115C5.67599 24.2358 5.91663 24.2986 6.16119 24.2972L17.481 24.3042H17.4819C17.7264 24.3057 17.9669 24.2431 18.1796 24.1227C18.3922 24.0022 18.5696 23.828 18.6939 23.6176C18.8185 23.4108 18.8867 23.1749 18.8915 22.9335C18.8964 22.6922 18.8379 22.4537 18.7217 22.242L16.8021 18.702C16.4904 18.1271 16.2002 17.5419 15.9315 16.9464C16.3994 16.7511 16.9032 16.5863 17.4005 16.4286C18.6009 17.8348 19.6843 19.1848 19.1485 21.0373C19.1375 21.0743 19.134 21.1132 19.1381 21.1516C19.1422 21.19 19.1538 21.2272 19.1724 21.2611C19.1909 21.295 19.216 21.3249 19.2461 21.3491C19.2762 21.3733 19.3109 21.3912 19.348 21.402C19.3851 21.4127 19.4239 21.416 19.4623 21.4117C19.5007 21.4073 19.5379 21.3954 19.5716 21.3767C19.6054 21.3579 19.6351 21.3326 19.6591 21.3023C19.6831 21.2721 19.7008 21.2373 19.7113 21.2001C20.3065 19.1432 19.2014 17.6484 18.0061 16.2361C19.7745 15.667 21.5107 14.9812 22.1057 12.9245C22.7007 10.8678 21.5958 9.3728 20.4005 7.96044C22.1688 7.39135 23.905 6.70556 24.5 4.64887C24.5107 4.61187 24.514 4.57311 24.5097 4.53484C24.5054 4.49656 24.4936 4.4595 24.475 4.42579C24.4563 4.39208 24.4312 4.36238 24.4011 4.33838C24.371 4.31438 24.3364 4.29656 24.2994 4.28593ZM3.88473 11.061C3.73255 11.2872 3.49742 11.4443 3.23024 11.4984C2.96306 11.5525 2.68534 11.4991 2.45719 11.3499C2.34492 11.2771 2.24823 11.1827 2.1727 11.0723C2.09718 10.9618 2.04434 10.8375 2.01723 10.7064C1.99012 10.5754 1.9893 10.4403 2.0148 10.3089C2.0403 10.1775 2.09162 10.0525 2.16578 9.94115C2.318 9.71504 2.55313 9.55795 2.8203 9.50389C3.08746 9.44983 3.36517 9.50314 3.59332 9.65229C3.7056 9.72511 3.8023 9.81949 3.87783 9.92996C3.95335 10.0404 4.0062 10.1648 4.03331 10.2958C4.06041 10.4269 4.06124 10.562 4.03573 10.6934C4.01023 10.8247 3.9589 10.9497 3.88473 11.0611V11.061ZM6.49215 16.7612C6.33995 16.9874 6.10482 17.1445 5.83765 17.1985C5.57048 17.2526 5.29277 17.1993 5.06461 17.0501C4.95234 16.9773 4.85564 16.8829 4.78012 16.7725C4.7046 16.662 4.65175 16.5376 4.62464 16.4066C4.59754 16.2755 4.59671 16.1404 4.62221 16.009C4.64772 15.8776 4.69904 15.7526 4.77321 15.6413C4.92543 15.4151 5.16056 15.2581 5.42772 15.204C5.69487 15.1499 5.97258 15.2032 6.20075 15.3523C6.31303 15.4252 6.40974 15.5195 6.48527 15.63C6.5608 15.7405 6.61365 15.8649 6.64075 15.9959C6.66786 16.127 6.66868 16.2621 6.64317 16.3935C6.61767 16.5248 6.56633 16.6498 6.49215 16.7612ZM6.51002 5.36303C6.39775 5.29021 6.30106 5.19582 6.22553 5.08535C6.15001 4.97488 6.09716 4.85052 6.07006 4.71948C6.04295 4.58843 6.04213 4.45331 6.06763 4.32194C6.09313 4.19058 6.14445 4.06558 6.21862 3.95419C6.37082 3.72806 6.60595 3.57095 6.87312 3.51688C7.14028 3.46281 7.418 3.51612 7.64616 3.66528C7.75843 3.7381 7.85514 3.83248 7.93068 3.94295C8.00621 4.05342 8.05906 4.17779 8.08617 4.30884C8.11328 4.43989 8.11411 4.57502 8.08861 4.70639C8.06311 4.83777 8.01178 4.96277 7.93761 5.07416C7.7854 5.30026 7.55029 5.45734 7.28314 5.5114C7.016 5.56546 6.73831 5.51216 6.51017 5.36303H6.51002ZM7.25026 13.7682C6.98736 13.5974 6.76094 13.3762 6.58413 13.1173C6.40732 12.8585 6.28363 12.5671 6.22022 12.2601C6.15681 11.9531 6.15494 11.6366 6.21472 11.3288C6.27449 11.0211 6.39473 10.7283 6.56847 10.4674C6.9168 9.94961 7.4515 9.58624 8.06113 9.453C8.67077 9.31975 9.30831 9.42691 9.84088 9.75214C9.61711 11.2452 9.26949 12.7171 8.80162 14.1525C8.25591 14.2042 7.70885 14.0687 7.2504 13.7682H7.25026ZM16.2866 18.9811L18.2062 22.5212C18.2735 22.6437 18.3074 22.7818 18.3045 22.9215C18.3017 23.0613 18.2622 23.1978 18.1901 23.3176C18.1173 23.4404 18.0135 23.5421 17.8892 23.6123C17.7649 23.6826 17.6243 23.719 17.4815 23.718H17.4809L6.16129 23.7112C6.01838 23.7122 5.87772 23.6756 5.75336 23.6052C5.62901 23.5348 5.52532 23.4329 5.45265 23.3099C5.38067 23.19 5.34139 23.0534 5.33873 22.9137C5.33608 22.7739 5.37014 22.6359 5.43751 22.5134L7.36159 18.9757C7.94996 17.8928 8.46516 16.7718 8.90372 15.6202C10.2726 15.0269 11.077 15.4109 12.0043 15.8542C12.6733 16.1741 13.4119 16.5272 14.4134 16.5272C14.6394 16.5268 14.8651 16.5096 15.0885 16.4757C15.4455 17.3305 15.8454 18.1667 16.2866 18.9811ZM21.5422 12.7616C21.0058 14.6154 19.3641 15.1909 17.5932 15.7526C16.3927 14.3464 15.3093 12.9963 15.8451 11.1439C16.3815 9.28998 18.0232 8.71449 19.7941 8.15278C20.9948 9.55898 22.0782 10.9091 21.5422 12.7616Z" fill="#B9E060"/>
<path d="M16.5405 11.3419C16.5192 11.4166 16.5285 11.4967 16.5663 11.5646C16.6042 11.6325 16.6674 11.6826 16.7421 11.7038L20.4872 12.7691C20.5243 12.7799 20.5632 12.7832 20.6015 12.7789C20.6399 12.7746 20.677 12.7627 20.7108 12.744C20.7446 12.7254 20.7743 12.7002 20.7983 12.6699C20.8223 12.6397 20.8401 12.605 20.8507 12.5679C20.8613 12.5308 20.8644 12.4919 20.8599 12.4536C20.8554 12.4152 20.8433 12.3781 20.8245 12.3445C20.8056 12.3108 20.7802 12.2812 20.7499 12.2573C20.7195 12.2335 20.6847 12.2159 20.6475 12.2055L16.9024 11.1402C16.8654 11.1297 16.8267 11.1266 16.7885 11.131C16.7503 11.1354 16.7133 11.1474 16.6797 11.1661C16.6461 11.1848 16.6165 11.21 16.5926 11.2401C16.5687 11.2703 16.551 11.3049 16.5405 11.3419ZM17.8365 10.0957C17.8152 10.1704 17.8245 10.2505 17.8623 10.3184C17.9001 10.3862 17.9633 10.4363 18.0381 10.4576L20.0547 11.0312C20.0917 11.0417 20.1304 11.0448 20.1686 11.0404C20.2068 11.036 20.2438 11.024 20.2774 11.0053C20.311 10.9866 20.3406 10.9614 20.3645 10.9313C20.3884 10.9011 20.4061 10.8665 20.4166 10.8295C20.4272 10.7925 20.4303 10.7538 20.4259 10.7156C20.4214 10.6774 20.4095 10.6404 20.3908 10.6068C20.3721 10.5732 20.3469 10.5436 20.3168 10.5197C20.2866 10.4958 20.252 10.4781 20.215 10.4676L18.1984 9.89399C18.1614 9.88347 18.1227 9.88033 18.0845 9.88477C18.0463 9.8892 18.0093 9.90113 17.9757 9.91985C17.9421 9.93858 17.9125 9.96374 17.8886 9.99391C17.8647 10.0241 17.847 10.0586 17.8365 10.0957ZM19.3515 13.4518L17.3349 12.8782C17.2978 12.8674 17.259 12.8641 17.2206 12.8684C17.1823 12.8727 17.1451 12.8845 17.1113 12.9032C17.0776 12.9219 17.0478 12.9471 17.0238 12.9773C16.9998 13.0076 16.982 13.0422 16.9714 13.0794C16.9609 13.1165 16.9578 13.1554 16.9623 13.1937C16.9668 13.232 16.9788 13.2691 16.9977 13.3028C17.0166 13.3365 17.0419 13.3661 17.0723 13.3899C17.1026 13.4138 17.1374 13.4314 17.1746 13.4417L19.1912 14.0153C19.2658 14.0361 19.3456 14.0265 19.4131 13.9887C19.4806 13.9508 19.5304 13.8877 19.5516 13.8133C19.5728 13.7388 19.5637 13.659 19.5262 13.5912C19.4887 13.5235 19.4259 13.4733 19.3515 13.4518Z" fill="#B9E060"/>
</g>
<defs>
<clipPath id="clip0_3515_3272">
<rect width="25" height="25" fill="white"/>
</clipPath>
</defs>
</svg>
