<svg width="130" height="130" viewBox="0 0 130 130" fill="none" xmlns="http://www.w3.org/2000/svg">
<path d="M129.971 65.1884C129.971 83.6984 122.211 100.398 109.761 112.218C106.771 115.038 103.521 117.588 100.031 119.818C98.1409 121.028 96.1809 122.148 94.1609 123.148C85.4409 127.528 75.5909 129.988 65.1709 129.988C54.7509 129.988 44.9109 127.528 36.1909 123.158C34.1709 122.148 32.2109 121.038 30.3209 119.828C26.4309 117.338 22.8309 114.448 19.5709 111.208C7.72086 99.4784 0.380859 83.1884 0.380859 65.1884C0.380859 29.4084 29.3909 0.398438 65.1709 0.398438C100.961 0.398438 129.971 29.4084 129.971 65.1884Z" fill="#D7EAF1"/>
<path d="M98.0314 83.8336C92.6374 79.5006 93.9254 75.0006 96.7584 67.3336C99.5914 59.6666 97.4254 52.1666 92.9254 48.1666C88.4254 44.1666 86.6164 39.1406 86.6164 39.1406L64.3304 40.1486L42.0444 39.1406C42.0444 39.1406 40.2354 44.1666 35.7354 48.1666C31.2354 52.1666 29.0684 59.6666 31.9024 67.3336C34.7354 75.0006 36.0234 79.5006 30.6294 83.8336C25.2354 88.1666 19.9024 99.0006 26.4024 108.834H63.9224H64.7384H102.258C108.758 99.0006 103.425 88.1676 98.0314 83.8336Z" fill="black"/>
<path d="M109.76 112.221C106.77 115.041 103.52 117.591 100.03 119.821C98.1403 121.031 96.1803 122.151 94.1603 123.151C85.4403 127.531 75.5903 129.991 65.1703 129.991C54.7503 129.991 44.9103 127.531 36.1903 123.161C34.1703 122.151 32.2103 121.041 30.3203 119.831C26.4303 117.341 22.8303 114.451 19.5703 111.211C21.0203 109.111 22.7503 107.231 24.6903 105.601C27.1403 103.531 29.9303 101.861 32.9703 100.691L38.9403 98.3906C40.5003 97.7906 41.9903 97.0406 43.3803 96.1706C44.8903 95.2206 46.2903 94.1206 47.5603 92.8906C47.7903 92.6706 48.0103 92.4406 48.2303 92.2106C48.4003 92.0406 48.5703 91.8606 48.7303 91.6806C48.9203 91.4706 49.1103 91.2606 49.2903 91.0406C49.3403 90.9906 49.3803 90.9406 49.4103 90.8906C49.4503 90.8606 49.4703 90.8306 49.5003 90.7906C49.5103 90.7906 49.5103 90.7806 49.5203 90.7706C49.6103 90.6706 49.7003 90.5606 49.7803 90.4406C49.8003 90.4306 49.8103 90.4106 49.8203 90.3906H78.8403C79.0203 90.6106 79.1903 90.8306 79.3703 91.0406C79.5503 91.2506 79.7303 91.4606 79.9203 91.6606C79.9103 91.6706 79.9203 91.6806 79.9303 91.6806L80.0403 91.7906C80.0603 91.8206 80.0903 91.8506 80.1103 91.8806C80.1103 91.8806 80.1103 91.8906 80.1203 91.8906C80.2403 92.0306 80.3703 92.1606 80.5003 92.2906C80.7003 92.4906 80.9003 92.6906 81.1003 92.8906C82.3703 94.1206 83.7703 95.2206 85.2803 96.1706C86.6703 97.0406 88.1603 97.7906 89.7203 98.3906L95.6903 100.691C98.7303 101.861 101.52 103.531 103.97 105.601C106.22 107.481 108.18 109.721 109.76 112.221Z" fill="#1DACAC"/>
<path d="M78.8439 90.3906H49.8149C49.1149 91.2696 48.3689 92.1106 47.5589 92.8906C46.2889 94.1206 44.8889 95.2206 43.3789 96.1706C48.6789 99.7906 56.0589 102.001 64.3289 102.001C72.5989 102.001 79.9789 99.7906 85.2789 96.1706C83.7689 95.2206 82.3689 94.1206 81.0989 92.8906C80.2909 92.1106 79.5439 91.2696 78.8439 90.3906Z" fill="#007289"/>
<path d="M81.1005 92.8903C76.7205 95.4403 70.8306 97.0003 64.3306 97.0003C57.8306 97.0003 51.9405 95.4403 47.5605 92.8903C51.2205 89.3603 53.8105 84.7603 54.8805 79.6203L55.4505 76.8803L57.2206 68.3203H71.4406L73.7805 79.6203C74.2305 81.7403 74.9205 83.7703 75.8605 85.6703C77.1705 88.3803 78.9505 90.8203 81.1005 92.8903Z" fill="#F69779"/>
<path d="M75.8612 85.6703C73.3612 86.3503 71.5812 86.3503 71.5812 86.3503C71.5812 86.3503 61.2212 86.3503 55.4512 76.8803L57.2212 68.3203H71.4412L73.7812 79.6203C74.2312 81.7403 74.9212 83.7703 75.8612 85.6703Z" fill="#F37A67"/>
<path d="M84.0793 29.07C81.7673 24.734 77.3443 22.335 73.2703 21.009C67.4743 19.122 61.1863 19.122 55.3913 21.009C51.3173 22.335 46.8943 24.735 44.5823 29.07C40.4023 37.074 41.1143 49.526 41.1143 49.526L45.4723 54.151L64.3313 51.758L83.1903 54.151L87.5483 49.526C87.5483 49.526 88.2593 37.075 84.0793 29.07Z" fill="black"/>
<path d="M83.8704 56.1104C81.0904 75.6104 64.3304 75.6104 64.3304 75.6104C64.3304 75.6104 47.5704 75.6104 44.7904 56.1104C43.2104 55.7504 41.8604 54.7405 40.9504 53.4005C40.0404 52.0605 39.6604 50.3804 39.9004 48.7704C40.0204 47.9804 40.3204 47.1705 40.9304 46.6405C41.4804 46.1605 42.2304 45.9604 42.9604 45.9904C43.6904 46.0204 44.3904 46.2705 45.0504 46.5905C45.0504 46.5905 46.1704 25.9604 60.1104 26.9904C68.6004 28.1404 69.2904 32.8405 70.5504 36.1705C71.8104 39.4905 75.1404 46.2605 79.6104 49.9305C84.0804 53.6005 83.8704 56.1104 83.8704 56.1104Z" fill="#F69779"/>
<path d="M36.1903 123.16C34.1703 122.15 32.2103 121.04 30.3203 119.83L32.3603 108.83L32.9803 105.5L33.5903 108.83L36.1903 123.16Z" fill="#007289"/>
<path d="M100.03 119.82C98.1402 121.03 96.1802 122.15 94.1602 123.15L96.7601 108.83L97.3701 105.5L97.9902 108.83L100.03 119.82Z" fill="#007289"/>
<path d="M63.3906 50.0938V61.5348H65.3296C68.6526 61.5348 64.0076 51.4088 63.3906 50.0938Z" fill="#F37A67"/>
<path d="M77.4887 45.6397C74.8087 44.3157 71.8297 44.1197 69.0367 45.2297C67.8537 45.7007 68.3687 47.6357 69.5687 47.1587C71.8577 46.2487 74.2547 46.2677 76.4797 47.3667C77.6317 47.9357 78.6447 46.2107 77.4887 45.6397Z" fill="black"/>
<path d="M75.0767 49.2037C74.4677 48.1477 73.1907 48.2117 73.1907 48.2117C72.1487 48.2117 71.3047 49.0557 71.3047 50.0977C71.3047 51.1397 72.1487 51.9837 73.1907 51.9837C73.4207 51.9837 73.6377 51.9367 73.8417 51.8617L73.8427 51.8667C73.8547 51.8627 73.8637 51.8557 73.8757 51.8507C73.9367 51.8267 73.9937 51.7967 74.0507 51.7667C75.6997 51.0517 75.8757 49.2207 75.8757 49.2207C75.5467 49.4977 75.0767 49.2037 75.0767 49.2037Z" fill="#051733"/>
<path d="M51.1724 45.6397C53.8524 44.3157 56.8314 44.1197 59.6244 45.2297C60.8074 45.7007 60.2924 47.6357 59.0924 47.1587C56.8034 46.2487 54.4064 46.2677 52.1814 47.3667C51.0294 47.9357 50.0164 46.2107 51.1724 45.6397Z" fill="black"/>
<path d="M53.5861 49.2037C54.1951 48.1477 55.4721 48.2117 55.4721 48.2117C56.5141 48.2117 57.3581 49.0557 57.3581 50.0977C57.3581 51.1397 56.5141 51.9837 55.4721 51.9837C55.2421 51.9837 55.0251 51.9367 54.8211 51.8617L54.8201 51.8667C54.8081 51.8627 54.7991 51.8557 54.7871 51.8507C54.7261 51.8267 54.6691 51.7967 54.6121 51.7667C52.9631 51.0517 52.7871 49.2207 52.7871 49.2207C53.1151 49.4977 53.5861 49.2037 53.5861 49.2037Z" fill="#051733"/>
<path d="M58.1855 65.7266C58.8505 68.2086 61.3456 70.0565 64.3316 70.0565C67.3166 70.0565 69.8125 68.2086 70.4765 65.7266H58.1855Z" fill="white"/>
</svg>
