<svg width="50" height="50" viewBox="0 0 50 50" fill="none" xmlns="http://www.w3.org/2000/svg">
<path fill-rule="evenodd" clip-rule="evenodd" d="M8.33333 10.4141C7.7808 10.4141 7.25089 10.6336 6.86019 11.0243C6.46949 11.415 6.25 11.9449 6.25 12.4974C6.25 13.0499 6.46949 13.5798 6.86019 13.9705C7.25089 14.3612 7.7808 14.5807 8.33333 14.5807H41.6667C42.2192 14.5807 42.7491 14.3612 43.1398 13.9705C43.5305 13.5798 43.75 13.0499 43.75 12.4974C43.75 11.9449 43.5305 11.415 43.1398 11.0243C42.7491 10.6336 42.2192 10.4141 41.6667 10.4141H8.33333ZM6.25 24.9974C6.25 24.4449 6.46949 23.915 6.86019 23.5243C7.25089 23.1336 7.7808 22.9141 8.33333 22.9141H41.6667C42.2192 22.9141 42.7491 23.1336 43.1398 23.5243C43.5305 23.915 43.75 24.4449 43.75 24.9974C43.75 25.5499 43.5305 26.0798 43.1398 26.4705C42.7491 26.8612 42.2192 27.0807 41.6667 27.0807H8.33333C7.7808 27.0807 7.25089 26.8612 6.86019 26.4705C6.46949 26.0798 6.25 25.5499 6.25 24.9974ZM6.25 37.4974C6.25 36.9449 6.46949 36.415 6.86019 36.0243C7.25089 35.6336 7.7808 35.4141 8.33333 35.4141H41.6667C42.2192 35.4141 42.7491 35.6336 43.1398 36.0243C43.5305 36.415 43.75 36.9449 43.75 37.4974C43.75 38.0499 43.5305 38.5798 43.1398 38.9705C42.7491 39.3612 42.2192 39.5807 41.6667 39.5807H8.33333C7.7808 39.5807 7.25089 39.3612 6.86019 38.9705C6.46949 38.5798 6.25 38.0499 6.25 37.4974Z" fill="url(#paint0_linear_3579_3255)"/>
<defs>
<linearGradient id="paint0_linear_3579_3255" x1="6.25" y1="10.4141" x2="34.5188" y2="46.7599" gradientUnits="userSpaceOnUse">
<stop stop-color="#87DA57"/>
<stop offset="0.23" stop-color="#87DA57"/>
<stop offset="0.484" stop-color="#007F35"/>
<stop offset="0.724" stop-color="#B9E060"/>
<stop offset="0.95" stop-color="#87DA57"/>
</linearGradient>
</defs>
</svg>
