<svg xmlns="http://www.w3.org/2000/svg" version="1.1" xmlns:xlink="http://www.w3.org/1999/xlink" width="512"
    height="512" x="0" y="0" viewBox="0 0 48 48" style="enable-background:new 0 0 512 512" xml:space="preserve"
    fill-rule="evenodd" className="">
    <g>
        <path
            d="m29.38 2.015-4.196 4.196a3.467 3.467 0 0 0 0 4.902h.001a3.465 3.465 0 0 0 4.901 0l4.196-4.195a3.467 3.467 0 0 0 0-4.902l-.001-.001a3.464 3.464 0 0 0-4.901 0zm-1.745 3.159 3.489 3.488-1.745 1.744a2.464 2.464 0 0 1-3.487 0h-.001a2.47 2.47 0 0 1 0-3.488zM35.601 11.594c-1.739 1.739-1.739 4.562 0 6.301s4.562 1.739 6.301 0 1.739-4.562 0-6.301a4.46 4.46 0 0 0-6.301 0zm5.922 5.215-4.836-4.836a3.457 3.457 0 0 1 4.836 4.836zM20.848 10.428c-1.695-1.695-3.559-2.834-5.035-3.221-1.152-.302-2.097-.143-2.664.424s-.726 1.511-.423 2.664c.387 1.476 1.525 3.34 3.22 5.035s3.559 2.834 5.035 3.221c1.153.302 2.097.143 2.664-.424s.726-1.512.424-2.664c-.387-1.476-1.526-3.34-3.221-5.035zm-1.066.359-3.477 3.477c-1.358-1.445-2.286-2.979-2.612-4.223-.192-.731-.196-1.343.163-1.703.36-.359.972-.355 1.703-.163 1.244.326 2.778 1.254 4.223 2.612zM32.183 27.549l.001-.016a2.5 2.5 0 0 0-2.361-2.695l-9.781-.514a2.501 2.501 0 0 0-1.905.735l-5.4 5.434a2.5 2.5 0 0 0-3.436.135l-4.605 4.721a.5.5 0 0 0 .009.707l11.073 10.802a.5.5 0 0 0 .707-.009l4.605-4.72a2.498 2.498 0 0 0 .272-3.16l2.933-2.721c.222-.206.501-.339.8-.384l11.131-1.654a2.497 2.497 0 0 0 1.461-.767l5.115-5.483a2.388 2.388 0 0 0-.382-3.589 2.345 2.345 0 0 0-2.385-.177l.068-.13a2.396 2.396 0 0 0-1.309-3.36l-.003-.001a2.383 2.383 0 0 0-.76-.141h-.051a2.355 2.355 0 0 0-2.02 1.158l-3.083 5.217a1.5 1.5 0 0 1-.694.612zm-18.963 6.85a2.429 2.429 0 1 0-3.434 3.435A2.429 2.429 0 0 0 13.22 34.4zm7.461 3.838 2.934-2.722c.37-.343.834-.566 1.333-.64l11.131-1.654c.336-.05.645-.212.876-.46l5.116-5.483a1.387 1.387 0 0 0-.221-2.085l-.002-.002a1.345 1.345 0 0 0-1.71.142l-4.351 4.264a2.5 2.5 0 0 1-1.657.712l-4.091.152a2.4 2.4 0 0 1-.4.031l-3.057-.001a.5.5 0 0 1 0-1l3.057.001c.783.001 1.434-.6 1.496-1.38l.053-.658a1.502 1.502 0 0 0-1.417-1.617l-9.782-.514a1.5 1.5 0 0 0-1.142.441l-5.392 5.424zm-8.168-3.131a1.43 1.43 0 0 1 0 2.02 1.428 1.428 0 1 1 0-2.02zm25.39-8.983 1.313-2.521a1.397 1.397 0 0 0-.763-1.957l-.003-.002a1.355 1.355 0 0 0-1.629.586l-3.083 5.216c-.325.55-.848.955-1.462 1.131l-.219.057a2.5 2.5 0 0 1-.405.844l2.441-.167a1.5 1.5 0 0 0 .995-.428z"
            fill="#000000" opacity="1" data-original="#000000" className=""></path>
    </g>
</svg>