<svg width="799" height="998" viewBox="0 0 799 998" fill="none" xmlns="http://www.w3.org/2000/svg">
<g opacity="0.2">
<path d="M395.923 997.811C614.249 997.811 791.237 972.099 791.237 940.382C791.237 908.665 614.249 882.953 395.923 882.953C177.597 882.953 0.609375 908.665 0.609375 940.382C0.609375 972.099 177.597 997.811 395.923 997.811Z" fill="#650000"/>
</g>
<path d="M282.784 610.391C282.784 610.391 280.656 612.395 276.917 616.384C259.96 634.557 210.018 693.962 179.609 792.003C174.154 809.569 161.239 824.111 143.977 830.497C124.409 837.742 98.7578 835.166 77.2034 792.594C75.9155 790.071 74.6455 787.406 73.3934 784.58C70.1915 777.371 68.4207 769.626 68.1881 761.755C67.2043 729.522 71.1396 638.278 139.416 568.105C151.848 555.316 166.426 543.224 183.509 532.312L238.763 575.779L282.784 610.391Z" fill="#D68650"/>
<path d="M127.637 842.117C108.698 842.118 84.8011 831.391 65.5674 788.044C61.9033 779.783 59.9068 771.026 59.6327 762.014C58.5069 725.027 63.7779 598.63 178.904 525.098C181.971 523.136 185.941 523.331 188.801 525.583L288.078 603.673C290.038 605.214 291.227 607.533 291.336 610.024C291.445 612.512 290.464 614.924 288.651 616.631C288.005 617.239 223.667 678.823 187.784 794.53C181.447 814.966 166.179 831.414 146.941 838.527C141.638 840.489 135.012 842.117 127.637 842.117ZM183.057 542.838C80.4362 611.957 75.6989 727.338 76.7393 761.494C76.9453 768.282 78.4504 774.88 81.2111 781.103C97.268 817.291 117.382 831.21 141.004 822.477C155.288 817.193 166.665 804.851 171.437 789.46C202.098 690.592 251.752 630.824 270.002 611.23L183.057 542.838Z" fill="#650000"/>
<path d="M789.591 505.458C788.822 513.293 786.55 520.913 782.883 527.871C768.215 555.704 721.851 630.08 632.36 659.183C613.381 665.372 592.453 669.504 569.485 670.738L538.146 594.287L525.983 564.648L521.564 553.861C521.564 553.861 609.678 532.414 700.815 446.662C702.55 445.034 704.375 443.496 706.271 442.1C718.971 432.584 734.98 428.148 750.793 430.706C758.735 431.994 766.731 434.999 773.438 440.92C785.19 451.294 792.989 470.631 789.591 505.458Z" fill="#D68650"/>
<g opacity="0.3">
<path d="M789.59 505.46C788.821 513.295 786.549 520.915 782.882 527.873C768.214 555.706 721.85 630.082 632.359 659.185C632.359 659.185 631.286 647.737 626.259 627.703C626.259 627.703 625.258 617.06 632.556 615.54C634.376 615.155 636.076 615.723 637.603 616.791C645.708 622.462 656.529 622.328 665.088 617.369C703.227 595.272 782.156 537.433 773.438 440.922C785.19 451.297 792.989 470.633 789.59 505.46Z" fill="#650000"/>
</g>
<path d="M569.477 679.29C566.022 679.29 562.884 677.205 561.562 673.98L513.64 557.115C512.694 554.808 512.801 552.204 513.933 549.982C515.064 547.763 517.106 546.147 519.525 545.557C520.387 545.344 606.716 523.447 694.943 440.433C710.527 425.775 731.918 418.975 752.162 422.27C772.074 425.499 804.522 440.711 798.105 506.29C797.224 515.281 794.648 523.884 790.447 531.863C773.204 564.606 706.345 672.001 569.936 679.278C569.782 679.285 569.629 679.29 569.477 679.29ZM533.092 559.444L575.061 661.792C698.414 652.199 759.381 554.125 775.304 523.889C778.467 517.88 780.409 511.398 781.072 504.622C784.928 465.218 774.279 443.195 749.42 439.161C734.385 436.719 718.406 441.856 706.671 452.898C631.283 523.83 558.628 551.381 533.092 559.444Z" fill="#650000"/>
<path d="M642.018 943.58H154.601C126.84 943.58 106.824 937.605 92.4242 928.59C48.743 901.329 56.6671 846.343 56.6671 846.343C58.6526 819.387 66.6841 802.68 77.202 792.591C103.783 767.048 146.14 783.809 146.14 783.809C157.159 774.096 173.669 774.096 173.669 774.096C148.663 702.563 170.36 627.704 170.36 627.704C170.36 627.704 173.365 613.591 194.866 597.779C204.919 590.391 219.032 582.628 238.762 575.777C241.051 574.972 243.413 574.185 245.863 573.416C279.581 562.808 328.235 554.884 398.318 554.884C398.318 554.884 463.286 549.214 525.981 564.651C533.87 566.601 541.74 568.872 549.432 571.538C557.982 574.507 566.3 577.941 574.242 581.948C595.635 592.698 614.185 607.491 626.259 627.704C626.259 627.704 629.8 639.921 632.358 659.186C636.168 687.627 637.85 731.452 622.95 774.096C622.95 774.096 639.46 774.096 650.478 783.809C650.478 783.809 732.958 751.182 739.952 846.343C739.952 846.343 753.94 943.58 642.018 943.58Z" fill="#D68650"/>
<path d="M584.518 681.888C584.518 786.198 501.152 870.756 398.311 870.756C295.47 870.756 212.104 786.198 212.104 681.888C212.104 641.519 224.591 604.104 245.861 573.415C279.587 562.805 328.232 554.887 398.311 554.887C398.311 554.887 480.665 547.688 549.438 571.538C571.525 602.586 584.518 640.686 584.518 681.888Z" fill="#FFB98A"/>
<path d="M118.326 905.953C139.335 905.953 156.366 884.583 156.366 858.222C156.366 831.862 139.335 810.492 118.326 810.492C97.3165 810.492 80.2852 831.862 80.2852 858.222C80.2852 884.583 97.3165 905.953 118.326 905.953Z" fill="#FFB98A"/>
<path d="M678.296 905.953C699.306 905.953 716.337 884.583 716.337 858.222C716.337 831.862 699.306 810.492 678.296 810.492C657.287 810.492 640.256 831.862 640.256 858.222C640.256 884.583 657.287 905.953 678.296 905.953Z" fill="#FFB98A"/>
<g opacity="0.3">
<path d="M739.34 839.978C735.014 868.786 716.098 911.38 642.012 911.38H154.611C126.844 911.38 106.831 905.406 92.4335 896.395C68.3812 881.384 59.9859 857.978 57.2856 839.961C57.0448 842.026 56.8295 844.136 56.6678 846.335C56.6678 846.335 48.7508 901.331 92.4335 928.592C106.831 937.603 126.844 943.577 154.611 943.577H642.012C753.946 943.577 739.956 846.335 739.956 846.335C739.794 844.142 739.58 842.038 739.34 839.978Z" fill="#650000"/>
</g>
<g opacity="0.3">
<path d="M68.5671 737.537C68.5671 737.537 71.1253 742.135 77.7104 746.233C98.4252 759.123 125.682 746.29 129.984 722.274C135.26 692.825 146.944 646.856 170.363 627.711C170.363 627.711 150.43 693.876 173.677 774.104C173.677 774.104 161.473 771.915 146.138 783.801C146.138 783.801 111.554 766.509 77.1946 792.596C77.1946 792.596 64.1632 774.105 68.5671 737.537Z" fill="#650000"/>
</g>
<g opacity="0.3">
<path d="M727.151 438.523C715.724 496.351 676.968 552.315 585.397 588.671C573.393 593.453 560.507 597.87 546.641 601.923C507.788 613.273 461.369 621.666 406.115 626.236C352.071 630.711 305.768 630.173 266.166 625.641C232.057 621.742 202.904 614.867 178.072 605.667C154.526 596.948 134.879 586.155 118.535 573.806C131.883 560.074 147.535 547.091 165.876 535.376L225.202 582.045C227.66 581.181 230.195 580.336 232.826 579.51C269.028 568.122 321.266 559.614 396.513 559.614C396.513 559.614 466.266 553.525 533.581 570.1L528.837 558.519C528.837 558.519 623.443 535.492 721.293 443.421C723.157 441.673 725.116 440.021 727.151 438.523Z" fill="#650000"/>
</g>
<path d="M150.004 776.171C150.886 776.616 151.381 776.891 152.018 777.245L153.761 778.262C154.907 778.942 155.999 779.664 157.07 780.411C159.217 781.894 161.285 783.459 163.242 785.156C167.206 788.489 170.812 792.24 174.063 796.302C177.305 800.371 180.124 804.795 182.514 809.445C184.856 814.123 186.653 819.071 187.951 824.11C189.216 829.158 189.947 834.323 190.076 839.448L190.156 841.367L190.117 843.283C190.087 844.557 190.05 845.832 189.97 847.098C189.694 849.618 189.513 852.147 188.964 854.601C187.114 864.476 183.374 873.739 177.942 881.78C177.385 882.605 176.265 882.821 175.44 882.264C174.846 881.862 174.567 881.169 174.667 880.503L174.669 880.491C176.082 871.148 177.202 862.179 177.219 853.446C177.288 844.741 176.225 836.249 173.355 828.446C170.644 820.609 166.295 813.471 160.872 807.206C158.185 804.048 155.167 801.152 151.988 798.46C150.396 797.116 148.747 795.841 147.077 794.629C146.243 794.023 145.389 793.448 144.557 792.885L143.311 792.074L142.266 791.436L141.706 791.094C137.677 788.637 136.403 783.379 138.861 779.35C141.192 775.528 146.073 774.201 150.004 776.171Z" fill="#650000"/>
<path d="M654.357 791.433L653.312 792.071L652.066 792.881C651.234 793.445 650.381 794.019 649.546 794.625C647.877 795.838 646.227 797.113 644.635 798.457C641.456 801.149 638.438 804.045 635.751 807.202C630.328 813.467 625.98 820.605 623.269 828.443C620.398 836.245 619.335 844.738 619.404 853.443C619.422 862.176 620.541 871.144 621.954 880.488L621.956 880.498C622.104 881.482 621.428 882.4 620.443 882.549C619.734 882.656 619.059 882.333 618.681 881.777C613.248 873.735 609.509 864.473 607.658 854.598C607.11 852.144 606.929 849.615 606.652 847.094C606.572 845.829 606.535 844.554 606.506 843.279L606.467 841.364L606.547 839.445C606.676 834.32 607.407 829.155 608.672 824.107C609.97 819.068 611.767 814.12 614.108 809.441C616.498 804.792 619.318 800.367 622.559 796.299C625.81 792.237 629.416 788.485 633.381 785.152C635.338 783.455 637.406 781.89 639.553 780.407C640.623 779.661 641.716 778.939 642.861 778.259L644.605 777.241C645.242 776.887 645.737 776.612 646.618 776.168C650.832 774.042 655.97 775.734 658.096 779.947C660.112 783.944 658.693 788.773 654.946 791.074L654.357 791.433Z" fill="#650000"/>
<path d="M181.685 771.068C182.71 772.943 183.581 775.326 184.387 777.555C185.173 779.841 185.887 782.177 186.544 784.563C187.202 786.952 187.832 789.369 188.277 791.946C188.67 794.566 189.116 797.177 189.08 800.28L189.079 800.326C189.069 801.191 188.359 801.885 187.494 801.875C187.31 801.873 187.129 801.836 186.966 801.777C184.033 800.687 181.63 799.067 179.422 797.303C177.23 795.519 175.348 793.498 173.639 791.373C171.919 789.25 170.359 787.022 169.008 784.681C167.675 782.285 166.506 779.993 165.678 777.12C164.365 772.567 166.992 767.814 171.544 766.502C175.478 765.368 179.562 767.175 181.445 770.624L181.685 771.068Z" fill="#650000"/>
<path d="M630.944 777.119C630.116 779.993 628.946 782.285 627.613 784.68C626.262 787.022 624.702 789.25 622.982 791.372C621.273 793.497 619.391 795.518 617.199 797.302C614.991 799.067 612.588 800.686 609.655 801.777C608.843 802.078 607.941 801.665 607.64 800.853C607.576 800.681 607.544 800.505 607.541 800.333V800.279C607.504 797.176 607.95 794.565 608.343 791.945C608.789 789.368 609.419 786.951 610.077 784.562C610.734 782.176 611.448 779.841 612.234 777.554C613.041 775.325 613.911 772.942 614.936 771.067L615.175 770.629C617.448 766.472 622.66 764.944 626.816 767.217C630.408 769.181 632.033 773.343 630.944 777.119Z" fill="#650000"/>
<path d="M630.127 626.587C632.469 632.672 634.21 638.661 635.818 644.809C636.607 647.873 637.263 650.961 637.993 654.047L639.775 663.373L641.19 672.772C641.585 675.917 641.914 679.072 642.257 682.231C642.623 685.387 642.698 688.567 642.931 691.74L643.214 696.507L643.277 701.285C643.264 704.472 643.427 707.662 643.266 710.854C643.151 714.046 643.034 717.242 642.868 720.435C642.692 723.629 642.28 726.814 641.994 730.006L641.496 734.791C641.288 736.381 640.987 737.964 640.735 739.551L639.122 749.061L636.849 758.462L635.659 763.147L634.149 767.755C633.136 770.825 632.085 773.879 631.017 776.921L622.94 765.539H622.941C623.989 765.553 624.605 765.592 625.383 765.644C626.12 765.693 626.844 765.76 627.559 765.837C628.994 765.988 630.408 766.198 631.82 766.442C634.639 766.941 637.44 767.64 640.222 768.551C643.005 769.436 645.758 770.645 648.445 772.073C651.142 773.488 653.711 775.338 656.142 777.383L647.339 775.847C648.307 775.473 648.953 775.257 649.73 774.99L651.943 774.285C653.411 773.836 654.877 773.433 656.347 773.051C659.285 772.288 662.257 771.698 665.247 771.174C671.243 770.203 677.369 769.713 683.588 769.919C689.799 770.127 696.118 771.043 702.283 772.953C708.441 774.851 714.421 777.791 719.695 781.709C724.985 785.613 729.51 790.443 733.217 795.691C736.771 801.02 739.615 806.67 741.758 812.455C746.1 824.017 747.667 836.043 748.664 847.333C749.217 853.54 749.146 859.483 748.701 865.508C748.229 871.506 747.286 877.487 745.824 883.387C744.348 889.283 742.325 895.092 739.716 900.68C737.11 906.261 733.947 911.66 730.075 916.553C726.242 921.453 721.915 926.038 717.016 929.876C714.667 931.935 712.022 933.559 709.49 935.348C708.19 936.184 706.832 936.912 705.502 937.693C704.161 938.45 702.847 939.274 701.446 939.885C690.446 945.356 678.696 948.585 666.997 950.317L662.602 950.972L658.209 951.36C655.28 951.609 652.347 951.917 649.433 951.929C646.541 951.996 643.537 952.125 640.738 952.131H632.378H598.94H532.064H398.31H264.557H197.68H164.241H155.882C153.083 952.125 150.078 951.996 147.187 951.929C144.273 951.917 141.34 951.609 138.411 951.36L134.018 950.972L129.623 950.317C117.923 948.585 106.174 945.356 95.1742 939.885C93.7725 939.274 92.4589 938.45 91.1173 937.693C89.7883 936.912 88.4299 936.184 87.1302 935.348C84.598 933.559 81.9532 931.935 79.6042 929.876C74.7044 926.038 70.3782 921.453 66.5445 916.553C62.6726 911.66 59.5094 906.261 56.9035 900.68C54.2944 895.092 52.2714 889.283 50.7957 883.387C49.3342 877.487 48.3905 871.506 47.9183 865.508C47.4736 859.483 47.402 853.539 47.9558 847.333C48.9529 836.043 50.5195 824.017 54.8622 812.455C57.0044 806.67 59.8489 801.02 63.4028 795.691C67.1094 790.443 71.6346 785.613 76.9243 781.709C82.199 777.791 88.1791 774.851 94.3363 772.953C100.501 771.043 106.82 770.127 113.032 769.919C119.251 769.713 125.377 770.203 131.372 771.174C134.362 771.698 137.335 772.288 140.273 773.051C141.743 773.433 143.209 773.835 144.677 774.285L146.889 774.99C147.666 775.257 148.312 775.473 149.28 775.847L140.477 777.383C142.908 775.338 145.477 773.488 148.174 772.073C150.861 770.646 153.615 769.436 156.397 768.551C159.179 767.64 161.98 766.941 164.799 766.442C166.211 766.198 167.625 765.988 169.06 765.837C169.775 765.76 170.499 765.693 171.235 765.644C172.014 765.592 172.63 765.554 173.678 765.539H173.679L165.602 776.921C164.624 773.848 163.591 770.789 162.665 767.698L161.247 763.069L160.134 758.372L157.942 748.97L156.433 739.463C156.195 737.878 155.907 736.298 155.712 734.709L155.257 729.932C154.99 726.744 154.596 723.567 154.44 720.38L154.073 710.821C153.924 707.637 154.099 704.455 154.098 701.276L154.161 696.511L154.419 691.756C154.656 688.592 154.735 685.42 155.105 682.271C155.435 679.12 155.721 675.969 156.09 672.828C156.511 669.693 156.943 666.561 157.436 663.441C158.511 657.213 159.814 651.027 161.56 644.947C163.296 638.855 165.304 632.89 168.067 627.043C168.636 625.838 170.075 625.323 171.279 625.893C172.209 626.332 172.728 627.289 172.655 628.257L172.645 628.37C171.687 640.613 170.585 652.791 169.819 664.883C169.698 667.917 169.517 670.94 169.324 673.957L169.062 683.023C168.932 686.041 169.091 689.062 169.089 692.075L169.119 696.594L169.327 701.103C169.506 704.104 169.507 707.116 169.829 710.101L170.613 719.058C170.884 722.04 171.386 724.988 171.757 727.951L172.351 732.389C172.571 733.864 172.882 735.32 173.143 736.786C174.965 748.589 178.303 759.969 181.757 771.273L181.858 771.603C183.238 776.12 180.695 780.901 176.178 782.28C175.36 782.531 174.493 782.65 173.679 782.654L172.406 782.718C171.906 782.751 171.396 782.797 170.878 782.855C169.847 782.962 168.807 783.119 167.775 783.295C165.711 783.661 163.691 784.172 161.76 784.803C159.811 785.412 158.017 786.233 156.324 787.12C154.616 788.003 153.171 789.107 151.789 790.225L151.746 790.259C149.199 792.318 145.864 792.771 142.985 791.761L141.439 791.213L139.669 790.65C138.473 790.283 137.251 789.948 136.025 789.629C133.568 788.988 131.068 788.498 128.571 788.056C123.566 787.247 118.53 786.858 113.608 787.022C103.758 787.321 94.4071 789.992 87.0858 795.479C83.4085 798.198 80.2195 801.581 77.4777 805.425C74.8669 809.39 72.6395 813.724 70.9098 818.399C67.3777 827.764 65.9435 838.067 64.9937 848.934C64.1651 858.869 64.9754 869.468 67.4031 879.258C68.6352 884.174 70.3055 888.934 72.4109 893.443C74.5159 897.948 77.0223 902.24 80.0814 906.083C83.1108 909.94 86.4758 913.546 90.3689 916.571C92.202 918.214 94.351 919.482 96.3508 920.93C97.3922 921.601 98.5027 922.179 99.572 922.814C100.658 923.424 101.699 924.104 102.864 924.595C111.844 929.058 121.831 931.868 132.154 933.39L136.025 933.976L139.96 934.315C142.584 934.536 145.197 934.825 147.862 934.828C150.542 934.884 153.107 935.009 155.881 935.016H164.241H197.679H264.556H398.309H532.063H598.939H632.378H640.737C643.512 935.009 646.076 934.884 648.756 934.828C651.421 934.825 654.034 934.536 656.658 934.315L660.593 933.976L664.465 933.39C674.787 931.868 684.774 929.058 693.755 924.595C694.919 924.104 695.961 923.424 697.046 922.814C698.116 922.18 699.226 921.601 700.267 920.93C702.267 919.482 704.416 918.214 706.249 916.571C710.142 913.546 713.507 909.94 716.537 906.083C719.596 902.24 722.102 897.948 724.207 893.443C726.312 888.934 727.983 884.174 729.215 879.258C731.643 869.468 732.453 858.869 731.625 848.934C730.675 838.067 729.241 827.764 725.709 818.399C723.978 813.725 721.751 809.39 719.141 805.425C716.399 801.581 713.21 798.198 709.533 795.479C702.211 789.993 692.861 787.321 683.011 787.022C678.088 786.858 673.052 787.247 668.048 788.056C665.55 788.498 663.051 788.988 660.594 789.629C659.368 789.948 658.146 790.283 656.949 790.65L655.179 791.213L653.633 791.761C650.546 792.853 647.262 792.182 644.884 790.27L644.829 790.225C643.447 789.107 642.002 788.003 640.294 787.12C638.601 786.233 636.807 785.412 634.858 784.803C632.928 784.172 630.907 783.661 628.843 783.295C627.811 783.119 626.772 782.962 625.74 782.855C625.223 782.797 624.712 782.751 624.212 782.718L622.939 782.654C618.224 782.654 614.402 778.832 614.402 774.118C614.402 773.374 614.497 772.654 614.675 771.967L614.862 771.273C615.622 768.407 616.4 765.555 617.217 762.717L618.45 758.464L619.412 754.127L621.404 745.474L622.925 736.698C623.173 735.234 623.471 733.78 623.679 732.308L624.229 727.876C624.582 724.918 625.064 721.977 625.317 719.002C625.534 716.023 625.8 713.048 626.069 710.067C626.379 707.091 626.368 704.087 626.535 701.094L626.743 696.598L626.798 692.091C626.792 689.085 626.947 686.073 626.813 683.063L626.633 674.014L626.207 664.952C625.466 652.91 624.206 640.672 622.398 628.825L622.37 628.645C622.034 626.442 623.547 624.383 625.75 624.047C627.661 623.755 629.462 624.855 630.127 626.587Z" fill="#650000"/>
<path d="M403.691 597.262C830.392 561.98 691.786 281.31 657.05 221.365C653.147 214.63 653.449 206.212 657.987 199.888C694.085 149.59 691.344 107.753 678.895 77.9621C664.521 43.5659 633.256 19.3433 596.765 11.725C523.021 -3.67075 480.758 49.5553 465.777 73.6215C461.652 80.2481 454.016 83.7773 446.276 82.771C403.959 77.2705 361.031 81.3228 361.031 81.3228C361.031 81.3228 318.02 84.3765 277.181 96.7526C269.711 99.0164 261.599 96.7894 256.442 90.9302C237.711 69.6515 187.28 24.0899 117.066 51.3888C82.3214 64.8974 55.4605 93.926 46.931 130.216C39.5438 161.647 43.7119 203.366 87.5803 247.052C93.0958 252.545 94.7761 260.8 92.0325 268.084C67.6132 332.919 -23.0109 632.543 403.691 597.262Z" fill="#D68650"/>
<path d="M399.092 542.02C469.739 536.179 523.724 491.691 519.669 442.653C515.615 393.615 455.057 358.598 384.409 364.439C313.762 370.28 259.777 414.768 263.832 463.806C267.886 512.844 328.444 547.861 399.092 542.02Z" fill="#FFB98A"/>
<path d="M128.295 201.966C140.873 184.996 167.117 153.008 204.266 125.279C210.129 120.902 210.588 112.317 205.343 107.216C189.498 91.807 154.698 69.0015 110.993 106.694C110.993 106.694 65.2769 146.801 109.428 202.327C114.29 208.442 123.643 208.243 128.295 201.966Z" fill="#FFB98A"/>
<path d="M610.42 162.105C595.227 147.431 564.085 120.188 522.886 98.938C516.383 95.5841 514.52 87.1898 518.856 81.297C531.955 63.495 562.537 35.2835 611.839 65.2859C611.839 65.2859 663.523 97.3396 629.091 159.363C625.299 166.194 616.04 167.533 610.42 162.105Z" fill="#FFB98A"/>
<g opacity="0.3">
<path d="M398.99 540.406C163.739 559.858 85.7423 477.511 67.1951 388.836C64.2573 494.466 118.102 620.873 403.691 597.259C689.28 573.645 721.632 440.111 701.385 336.398C697.654 426.915 634.242 520.954 398.99 540.406Z" fill="#650000"/>
</g>
<g opacity="0.7">
<path d="M596.765 11.725C523.022 -3.67075 480.758 49.5553 465.777 73.6215C461.652 80.2481 454.016 83.7773 446.276 82.771C403.959 77.2709 361.031 81.3228 361.031 81.3228C361.031 81.3228 318.02 84.3765 277.182 96.7525C269.711 99.0164 261.6 96.7894 256.442 90.9305C237.712 69.6519 187.28 24.0903 117.067 51.3891C87.1318 63.0278 63.0821 86.2036 51.5332 115.601C65.1102 94.8987 85.2497 78.6908 108.967 69.4694C181.971 41.0863 234.405 88.4577 253.88 110.582C258.859 116.238 266.485 118.632 273.768 117.062C278.582 125.093 297.308 128.569 318.491 124.83C340.622 120.924 357.541 110.537 358.005 100.99C360.966 100.711 362.624 100.592 362.624 100.592C362.624 100.592 407.258 96.3794 451.256 102.098C459.303 103.144 467.243 99.4747 471.532 92.5848C487.108 67.5626 531.05 12.2219 607.724 28.2291C632.634 33.4297 655.162 46.1094 671.955 64.3007C655.735 37.1997 628.205 18.2887 596.765 11.725Z" fill="white"/>
</g>
<g opacity="0.3">
<path d="M479.324 394.852C479.324 394.852 477.19 421.94 447.116 428.098C412.381 435.21 413.118 407.039 413.118 407.039L387.553 402.44L363.09 411.176C363.09 411.176 368.444 438.843 333.013 437.533C302.336 436.398 295.782 410.028 295.782 410.028C295.782 410.028 265.805 447.329 308.116 480.629C308.116 480.629 321.278 538.724 398.295 532.356C475.312 525.988 478.753 466.52 478.753 466.52C515.02 426.723 479.324 394.852 479.324 394.852Z" fill="#650000"/>
</g>
<path d="M452.54 493.695C444.888 507.99 429.207 521.421 397.616 524.033C366.025 526.646 348.352 515.972 338.437 503.13C325.653 486.518 325.83 466.278 325.83 466.278C325.83 466.278 381.321 477.413 389.838 429.961C406.014 475.371 458.942 455.272 458.942 455.272C458.942 455.272 462.441 475.208 452.54 493.695Z" fill="#650000"/>
<path d="M452.539 493.698C444.887 507.993 429.206 521.424 397.615 524.036C366.024 526.649 348.351 515.975 338.436 503.133C338.436 503.133 386.573 452.1 452.539 493.698Z" fill="#F90030"/>
<path d="M388.271 532.986C367.49 532.988 350.718 527.174 338.314 515.65C317.246 496.079 317.258 467.421 317.268 466.21C317.291 463.66 318.451 461.253 320.431 459.644C322.41 458.035 325.005 457.394 327.505 457.897C327.726 457.939 351.666 462.454 367.615 451.535C375.021 446.466 379.533 438.913 381.408 428.446C382.093 424.627 385.26 421.746 389.126 421.427C392.994 421.112 396.59 423.429 397.892 427.083C401.462 437.1 407.153 443.809 415.291 447.595C432.817 455.742 455.69 447.357 455.92 447.273C458.301 446.382 460.967 446.594 463.175 447.857C465.383 449.12 466.925 451.294 467.364 453.799C467.574 454.992 472.292 483.26 454.725 506.026C442.764 521.527 423.785 530.453 398.316 532.56C394.871 532.844 391.522 532.986 388.271 532.986ZM335.55 475.893C337.16 483.718 340.987 494.837 350.079 503.22C360.749 513.056 376.497 517.188 396.906 515.504C417.306 513.816 432.168 507.152 441.079 495.695C448.669 485.935 450.618 474.343 450.919 466.353C440.172 468.596 423.319 470.154 408.182 463.162C401.638 460.138 396.072 455.865 391.52 450.385C387.931 456.538 383.143 461.666 377.184 465.724C363.402 475.11 346.524 476.334 335.55 475.893Z" fill="#650000"/>
<path d="M389.857 429.953C422.432 425.624 429.613 406.408 430.78 394.076C431.516 386.292 426.678 379.201 419.159 377.059C405.129 373.061 385.307 374.928 385.307 374.928C385.307 374.928 364.841 376.385 351.671 382.877C345.075 386.128 341.662 393.598 343.454 400.731C346.461 412.701 356.503 431.05 389.857 429.953Z" fill="#650000"/>
<path d="M398.063 426.456L397.974 428.189L397.845 429.667C397.747 430.639 397.627 431.586 397.48 432.528C397.195 434.413 396.826 436.271 396.326 438.104C395.364 441.773 394.082 445.405 392.317 448.881C390.575 452.361 388.428 455.718 385.856 458.8C383.265 461.861 380.242 464.617 376.929 466.946C370.264 471.613 362.497 474.202 354.992 475.273C347.434 476.338 340.128 475.938 333.026 474.866C325.9 473.802 318.597 471.679 311.849 467.885C305.096 464.161 299.032 458.474 295.126 451.689C291.196 444.888 289.588 437.273 289.606 430.108C289.668 422.911 291.181 415.998 294.11 409.748C294.523 408.868 295.571 408.489 296.452 408.901C297.016 409.166 297.375 409.691 297.451 410.267L297.456 410.313C298.267 416.867 299.135 423.065 300.746 428.774C302.303 434.478 304.539 439.612 307.589 443.802C310.613 448.011 314.569 451.287 319.382 453.472C321.794 454.55 324.312 455.477 327.022 456.106C328.333 456.495 329.75 456.699 331.107 457.005C332.529 457.184 333.903 457.47 335.353 457.579C341.12 458.164 346.919 458.094 352.226 457.267C357.542 456.369 362.312 454.495 366.358 451.759C370.34 448.934 373.626 445.141 376.101 440.553C377.313 438.256 378.397 435.805 379.197 433.224C379.608 431.939 379.964 430.628 380.281 429.322C380.44 428.669 380.576 428.012 380.693 427.375L380.965 425.74L381.151 424.622C381.922 419.98 386.31 416.842 390.952 417.614C395.271 418.332 398.288 422.184 398.063 426.456Z" fill="#650000"/>
<path d="M397.887 424.342L398.424 425.909C398.644 426.518 398.886 427.145 399.15 427.762C399.677 428.998 400.244 430.233 400.86 431.433C402.074 433.847 403.545 436.089 405.119 438.155C408.313 442.274 412.178 445.475 416.569 447.608C421.01 449.642 426.023 450.708 431.414 450.72C436.784 450.663 442.517 449.781 448.109 448.256C449.522 447.911 450.83 447.402 452.203 446.993C453.491 446.468 454.855 446.034 456.085 445.435C458.655 444.37 460.986 443.041 463.189 441.582C467.577 438.636 470.942 434.755 473.233 430.106C475.554 425.472 476.917 420.04 477.515 414.158C478.166 408.263 478.004 402.006 477.728 395.408L477.726 395.373C477.686 394.402 478.441 393.581 479.412 393.541C480.035 393.514 480.602 393.825 480.935 394.3C484.851 399.985 487.479 406.554 488.723 413.645C489.916 420.709 489.582 428.484 486.822 435.839C484.083 443.173 479.035 449.779 472.986 454.562C466.953 459.413 460.098 462.706 453.244 464.926C446.414 467.15 439.273 468.744 431.643 468.935C424.064 469.112 415.976 467.834 408.636 464.325C404.985 462.571 401.551 460.35 398.492 457.755C395.449 455.138 392.78 452.179 390.489 449.033C388.178 445.894 386.317 442.522 384.765 439.06C383.971 437.335 383.302 435.562 382.711 433.749C382.411 432.844 382.137 431.93 381.881 430.987L381.511 429.551L381.138 427.855C380.128 423.259 383.035 418.715 387.631 417.705C391.908 416.765 396.14 419.218 397.521 423.267L397.887 424.342Z" fill="#650000"/>
<path d="M337.719 608.686C221.276 608.686 140.15 579.233 96.0461 520.8C28.9837 431.948 69.8899 302.593 84.0253 265.064C85.6019 260.877 84.627 256.185 81.5414 253.113C33.1282 204.902 31.4686 158.606 38.6018 128.256C47.5971 89.9783 75.7706 58.2612 113.966 43.4114C189.316 14.1152 243.197 62.9288 262.865 85.2742C265.766 88.5723 270.413 89.8563 274.699 88.5619C315.425 76.2206 357.479 72.9994 360.329 72.7934C363.249 72.519 405.219 68.8056 447.378 74.2834C451.818 74.8737 456.192 72.8267 458.513 69.0971C474.245 43.8239 519.377 -13.1768 598.513 3.34659C638.629 11.7226 671.629 38.3828 686.789 74.6608C698.81 103.426 704.777 149.365 664.938 204.874C662.4 208.414 662.209 213.201 664.453 217.071C684.561 251.771 746.156 372.652 694.599 471.311C654.556 547.932 556.918 593.177 404.396 605.788C381.029 607.72 358.785 608.686 337.719 608.686ZM160.073 51.5552C147.702 51.5552 134.365 53.8434 120.167 59.3634C87.2311 72.1677 62.9667 99.3867 55.2615 132.173C46.3371 170.144 59.2425 206.754 93.6184 240.986C101.466 248.802 103.987 260.621 100.041 271.098C86.6852 306.557 47.9126 428.618 109.707 510.49C158.022 574.503 256.699 600.832 402.987 588.732C549.276 576.636 642.286 534.462 679.432 463.383C726.939 372.475 668.645 258.439 649.646 225.652C644.033 215.968 644.578 203.896 651.035 194.896C679.322 155.482 686.039 117.25 670.999 81.2595C658.014 50.1854 629.608 27.3208 595.015 20.0979C526.451 5.78071 486.873 55.9219 473.041 78.1414C467.185 87.5481 456.244 92.6961 445.173 91.2547C404.357 85.9478 362.253 89.8012 361.833 89.8398C361.77 89.8452 361.702 89.852 361.639 89.8556C361.217 89.8853 319.055 93.0016 279.663 104.939C268.979 108.185 257.34 104.898 250.019 96.5827C236.485 81.2073 204.587 51.5552 160.073 51.5552Z" fill="#650000"/>
<g opacity="0.4">
<path d="M383.137 394.903C392.108 394.161 399.17 391.014 398.911 387.874C398.651 384.734 391.168 382.79 382.197 383.532C373.226 384.274 366.164 387.42 366.423 390.56C366.683 393.7 374.166 395.644 383.137 394.903Z" fill="white"/>
</g>
<path d="M306.802 325.723C306.892 288.552 283.208 258.361 253.904 258.291C224.6 258.221 200.772 288.297 200.683 325.469C200.594 362.64 224.277 392.83 253.581 392.901C282.885 392.971 306.713 362.895 306.802 325.723Z" fill="white"/>
<path d="M253.705 399.8C253.663 399.8 253.624 399.8 253.582 399.8C220.536 399.719 193.732 366.378 193.83 325.476C193.878 305.962 199.967 287.564 210.974 273.672C222.332 259.336 237.546 251.445 253.821 251.445C253.863 251.445 253.902 251.445 253.944 251.445C286.99 251.526 313.794 284.867 313.696 325.769C313.648 345.283 307.559 363.681 296.552 377.573C285.193 391.91 269.98 399.8 253.705 399.8ZM207.576 325.511C207.495 358.834 228.148 385.993 253.615 386.056C253.644 386.056 253.674 386.056 253.702 386.056C265.694 386.056 277.082 380.015 285.779 369.038C294.877 357.555 299.91 342.176 299.95 325.735C300.031 292.412 279.377 265.252 253.911 265.19C253.882 265.19 253.852 265.19 253.823 265.19C241.831 265.19 230.444 271.23 221.747 282.207C212.649 293.691 207.616 309.07 207.576 325.511Z" fill="#650000"/>
<path d="M304.931 332.211C305.004 301.865 286.03 277.219 262.552 277.162C239.074 277.106 219.982 301.661 219.909 332.007C219.836 362.353 238.81 386.999 262.288 387.055C285.767 387.111 304.859 362.557 304.931 332.211Z" fill="#650000"/>
<path d="M262.469 313.443C262.488 305.39 258.045 298.851 252.546 298.838C247.046 298.825 242.572 305.342 242.553 313.395C242.533 321.448 246.976 327.987 252.476 328C257.975 328.014 262.449 321.496 262.469 313.443Z" fill="white"/>
<path d="M512.861 366.446C541.523 360.341 558.482 325.92 550.739 289.562C542.996 253.205 513.484 228.68 484.821 234.784C456.159 240.888 439.201 275.309 446.943 311.667C454.686 348.024 484.198 372.55 512.861 366.446Z" fill="white"/>
<path d="M503.902 374.222C491.289 374.222 478.713 369.422 467.648 360.227C454.017 348.899 444.27 332.15 440.205 313.064C431.684 273.059 451.048 234.911 483.37 228.027C515.69 221.141 548.918 248.089 557.439 288.092C561.504 307.179 559.43 326.447 551.597 342.347C543.494 358.796 530.239 369.728 514.274 373.127C510.835 373.859 507.367 374.222 503.902 374.222ZM493.678 240.688C491.199 240.688 488.712 240.943 486.232 241.471C461.324 246.776 446.706 277.609 453.648 310.2C457.073 326.281 465.164 340.292 476.433 349.655C487.23 358.625 499.652 362.196 511.411 359.684C523.17 357.179 533.063 348.865 539.267 336.273C545.741 323.13 547.42 307.036 543.995 290.957C537.744 261.61 516.109 240.688 493.678 240.688Z" fill="#650000"/>
<path d="M503.135 362.522C526.099 357.631 539.591 329.605 533.27 299.924C526.948 270.242 503.208 250.145 480.244 255.036C457.28 259.926 443.788 287.952 450.109 317.634C456.431 347.315 480.171 367.412 503.135 362.522Z" fill="#650000"/>
<path d="M500.578 302.699C505.957 301.554 508.958 294.24 507.281 286.363C505.603 278.487 499.883 273.03 494.504 274.176C489.124 275.321 486.123 282.635 487.801 290.512C489.478 298.388 495.199 303.845 500.578 302.699Z" fill="white"/>
</svg>
